<svg width="251" height="250" viewBox="0 0 251 250" fill="none" xmlns="http://www.w3.org/2000/svg">
<path d="M20.832 90V184.05L52.032 200.4L68.332 181.2V175.9C68.3305 162.827 72.8424 150.154 81.1054 140.024C89.3683 129.893 100.875 122.926 113.682 120.3L137.582 97.5L157.582 129.45C165.065 134.664 171.175 141.613 175.39 149.701C179.604 157.79 181.797 166.779 181.782 175.9V181.2L200.032 202.8L229.332 184.05V90C229.332 90 169.332 80.25 140.232 73.6C100.282 78.95 20.832 90 20.832 90Z" fill="#E0E9EE"/>
<path d="M229.231 194.05V80H212.531V194.05H229.231ZM68.3314 181.2V175.9C68.3299 162.827 72.8418 150.154 81.1048 140.024C89.3677 129.893 100.875 122.926 113.681 120.3L127.131 107.5L120.881 97.5L105.881 109.1C80.2814 110.5 51.4814 148.45 51.4814 175.9V181.2L61.2314 196.2L68.3314 181.2Z" fill="#D0E1E8"/>
<path d="M157.532 90V150C157.366 152.161 156.391 154.18 154.802 155.653C153.212 157.126 151.124 157.945 148.957 157.945C146.789 157.945 144.702 157.126 143.112 155.653C141.522 154.18 140.547 152.161 140.382 150V121.7C140.462 120.775 140.349 119.843 140.05 118.964C139.751 118.085 139.272 117.278 138.644 116.593C138.017 115.909 137.254 115.362 136.404 114.989C135.554 114.615 134.635 114.422 133.707 114.422C132.778 114.422 131.86 114.615 131.01 114.989C130.16 115.362 129.396 115.909 128.769 116.593C128.141 117.278 127.663 118.085 127.364 118.964C127.065 119.843 126.952 120.775 127.032 121.7C126.887 123.371 126.121 124.926 124.885 126.06C123.649 127.193 122.033 127.822 120.357 127.822C118.68 127.822 117.064 127.193 115.828 126.06C114.592 124.926 113.826 123.371 113.682 121.7V90H157.532Z" fill="#F0F4F7"/>
<path d="M245.031 207.75V185.3C245.031 179.35 243.731 180.3 238.581 182.4C233.107 184.667 226.956 184.667 221.481 182.4C219.52 181.268 217.296 180.672 215.031 180.672C212.767 180.672 210.542 181.268 208.581 182.4C203.107 184.667 196.956 184.667 191.481 182.4C189.52 181.268 187.296 180.672 185.031 180.672C182.767 180.672 180.542 181.268 178.581 182.4C173.107 184.667 166.956 184.667 161.481 182.4C159.52 181.268 157.296 180.672 155.031 180.672C152.767 180.672 150.542 181.268 148.581 182.4C143.107 184.667 136.956 184.667 131.481 182.4C129.52 181.268 127.296 180.672 125.031 180.672C122.767 180.672 120.542 181.268 118.581 182.4C113.107 184.667 106.956 184.667 101.481 182.4C99.5202 181.268 97.2957 180.672 95.0312 180.672C92.7668 180.672 90.5423 181.268 88.5812 182.4C83.1066 184.667 76.9559 184.667 71.4813 182.4C69.5202 181.268 67.2957 180.672 65.0312 180.672C62.7668 180.672 60.5423 181.268 58.5812 182.4C53.1066 184.667 46.9559 184.667 41.4812 182.4C39.4801 181.372 37.2791 180.792 35.0312 180.7C32.7834 180.792 30.5824 181.372 28.5813 182.4C23.1066 184.667 16.9559 184.667 11.4812 182.4C6.33125 180 5.03125 179.35 5.03125 185.3V207.75L126.681 233.95L245.031 207.75Z" fill="#94D8E5"/>
<path d="M35.0312 203.15C32.7834 203.242 30.5824 203.822 28.5813 204.85C23.1066 207.117 16.9559 207.117 11.4812 204.85C6.48125 202.55 5.03125 201.75 5.03125 207.75V245H245.031V207.75C245.031 201.75 243.731 202.75 238.581 204.85C233.107 207.117 226.956 207.117 221.481 204.85C219.52 203.718 217.296 203.122 215.031 203.122C212.767 203.122 210.542 203.718 208.581 204.85C203.107 207.117 196.956 207.117 191.481 204.85C189.52 203.718 187.296 203.122 185.031 203.122C182.767 203.122 180.542 203.718 178.581 204.85C173.107 207.117 166.956 207.117 161.481 204.85C159.52 203.718 157.296 203.122 155.031 203.122C152.767 203.122 150.542 203.718 148.581 204.85C143.107 207.117 136.956 207.117 131.481 204.85C129.52 203.718 127.296 203.122 125.031 203.122C122.767 203.122 120.542 203.718 118.581 204.85C113.107 207.117 106.956 207.117 101.481 204.85C99.5202 203.718 97.2957 203.122 95.0312 203.122C92.7668 203.122 90.5423 203.718 88.5812 204.85C83.1066 207.117 76.9559 207.117 71.4813 204.85C69.5202 203.718 67.2957 203.122 65.0312 203.122C62.7668 203.122 60.5423 203.718 58.5812 204.85C53.1066 207.117 46.9559 207.117 41.4812 204.85C39.4801 203.822 37.2791 203.242 35.0312 203.15Z" fill="#7BD1E0"/>
<path d="M212.331 90H233.581C236.618 90 239.53 88.7936 241.678 86.6464C243.825 84.4991 245.031 81.5867 245.031 78.55C245.031 75.5132 243.825 72.6009 241.678 70.4536C239.53 68.3063 236.618 67.1 233.581 67.1H212.331L203.931 75L195.531 67.2H83.8813L60.7312 79.25L40.0312 67.2H16.4812C13.4445 67.2 10.5322 68.4063 8.38488 70.5536C6.23759 72.7009 5.03125 75.6132 5.03125 78.65C5.03125 81.6867 6.23759 84.5991 8.38488 86.7463C10.5322 88.8936 13.4445 90.1 16.4812 90.1H212.331V90Z" fill="#748A95"/>
<path d="M40.0312 67.2V127.2C40.0313 129.481 40.9373 131.668 42.5501 133.281C44.1629 134.894 46.3504 135.8 48.6312 135.8C50.9121 135.8 53.0996 134.894 54.7124 133.281C56.3252 131.668 57.2313 129.481 57.2313 127.2V98.8C57.376 97.1294 58.1419 95.5738 59.3777 94.4404C60.6135 93.307 62.2294 92.6783 63.9062 92.6783C65.5831 92.6783 67.199 93.307 68.4348 94.4404C69.6706 95.5738 70.4365 97.1294 70.5813 98.8C70.5813 100.564 71.2819 102.255 72.529 103.502C73.7761 104.749 75.4676 105.45 77.2313 105.45C78.9949 105.45 80.6864 104.749 81.9335 103.502C83.1806 102.255 83.8813 100.564 83.8813 98.8V67.2H40.0312Z" fill="#F0F4F7"/>
<path d="M212.331 67.2H212.031C214.981 67.5571 217.677 69.0469 219.548 71.3547C221.42 73.6625 222.321 76.6075 222.061 79.5675C221.802 82.5275 220.402 85.2707 218.157 87.2174C215.912 89.1641 212.998 90.1619 210.031 90H233.831C236.868 90 239.78 88.7936 241.928 86.6464C244.075 84.4991 245.281 81.5867 245.281 78.55C245.281 75.5132 244.075 72.6009 241.928 70.4536C239.78 68.3063 236.868 67.1 233.831 67.1L212.331 67.2Z" fill="#617880"/>
<path d="M195.531 67.2V103.2C195.531 105.428 196.416 107.564 197.992 109.14C199.567 110.715 201.703 111.6 203.931 111.6C206.159 111.6 208.296 110.715 209.871 109.14C211.446 107.564 212.331 105.428 212.331 103.2V67.2H195.531Z" fill="#F0F4F7"/>
<path d="M79.6821 35.8L78.1321 35C76.9894 34.4022 75.6599 34.2691 74.4214 34.6284C73.1828 34.9877 72.131 35.8117 71.4856 36.9282C70.8402 38.0447 70.6512 39.3674 70.958 40.62C71.2648 41.8726 72.0438 42.9582 73.1321 43.65L74.6821 44.55C75.2528 44.8806 75.8832 45.095 76.5371 45.1809C77.191 45.2669 77.8554 45.2226 78.4921 45.0506C79.1288 44.8787 79.7252 44.5824 80.2469 44.179C80.7687 43.7756 81.2054 43.2729 81.5321 42.7C81.8706 42.1273 82.0914 41.4927 82.1815 40.8335C82.2717 40.1744 82.2293 39.5039 82.057 38.8613C81.8847 38.2187 81.5859 37.6169 81.1781 37.0912C80.7703 36.5656 80.2617 36.1266 79.6821 35.8Z" fill="#515BE0"/>
<path d="M51.9312 31.3C52.703 31.758 53.5838 31.9997 54.4812 32C55.5724 31.9889 56.63 31.6211 57.4926 30.9527C58.3552 30.2843 58.9755 29.3521 59.2588 28.2983C59.542 27.2444 59.4728 26.1269 59.0616 25.1161C58.6503 24.1053 57.9197 23.2568 56.9812 22.7L55.4812 21.8C54.9121 21.4382 54.2757 21.1953 53.6103 21.0859C52.9449 20.9764 52.2643 21.0027 51.6093 21.1632C50.9543 21.3236 50.3385 21.6149 49.799 22.0194C49.2595 22.424 48.8075 22.9335 48.47 23.5174C48.1325 24.1012 47.9166 24.7473 47.8353 25.4167C47.754 26.0861 47.8089 26.7651 47.9968 27.4127C48.1847 28.0603 48.5017 28.6633 48.9286 29.1853C49.3556 29.7072 49.8837 30.1374 50.4812 30.45L51.9312 31.3Z" fill="#515BE0"/>
<path d="M48.6313 42.6C49.2909 43.7437 50.376 44.5801 51.6499 44.9266C52.9239 45.2732 54.2832 45.1019 55.4313 44.45L56.9813 43.55C58.0696 42.8582 58.8485 41.7726 59.1553 40.52C59.4621 39.2674 59.2731 37.9447 58.6277 36.8282C57.9824 35.7117 56.9305 34.8878 55.692 34.5284C54.4534 34.1691 53.124 34.3023 51.9813 34.9L50.4313 35.8C49.2961 36.4679 48.4703 37.5568 48.1333 38.83C47.7963 40.1032 47.9752 41.458 48.6313 42.6Z" fill="#515BE0"/>
<path d="M81.5316 23.6C81.2008 23.0312 80.761 22.5334 80.2374 22.1349C79.7138 21.7365 79.1167 21.4453 78.4803 21.2781C77.8439 21.1108 77.1808 21.0709 76.5289 21.1604C75.8771 21.25 75.2493 21.4673 74.6816 21.8L73.1316 22.65C72.1684 23.1958 71.4136 24.0459 70.9855 25.0669C70.5575 26.0879 70.4804 27.2221 70.7664 28.2917C71.0523 29.3612 71.6852 30.3056 72.5657 30.9767C73.4462 31.6478 74.5246 32.0077 75.6316 32C76.5156 32.0173 77.3852 31.7739 78.1316 31.3L79.6816 30.45C80.2546 30.1234 80.7572 29.6866 81.1607 29.1648C81.5641 28.6431 81.8603 28.0467 82.0322 27.41C82.2042 26.7733 82.2485 26.1089 82.1626 25.455C82.0767 24.8011 81.8622 24.1707 81.5316 23.6Z" fill="#515BE0"/>
<path d="M65.0312 40.35C63.7052 40.35 62.4334 40.8768 61.4957 41.8144C60.558 42.7521 60.0312 44.0239 60.0312 45.35V47.1C60.0312 48.4261 60.558 49.6978 61.4957 50.6355C62.4334 51.5732 63.7052 52.1 65.0312 52.1C66.3573 52.1 67.6291 51.5732 68.5668 50.6355C69.5045 49.6978 70.0312 48.4261 70.0312 47.1V45.35C70.0312 44.0239 69.5045 42.7521 68.5668 41.8144C67.6291 40.8768 66.3573 40.35 65.0312 40.35Z" fill="#515BE0"/>
<path d="M70.0312 19.1C70.0312 17.7739 69.5045 16.5021 68.5668 15.5644C67.6291 14.6268 66.3573 14.1 65.0312 14.1C63.7052 14.1 62.4334 14.6268 61.4957 15.5644C60.558 16.5021 60.0312 17.7739 60.0312 19.1V20.9C60.0312 22.2261 60.558 23.4978 61.4957 24.4355C62.4334 25.3732 63.7052 25.9 65.0312 25.9C66.3573 25.9 67.6291 25.3732 68.5668 24.4355C69.5045 23.4978 70.0312 22.2261 70.0312 20.9V19.1Z" fill="#515BE0"/>
<path d="M228.832 21.65L227.282 20.8C226.14 20.144 224.785 19.965 223.512 20.302C222.239 20.6391 221.15 21.4649 220.482 22.6C220.152 23.1707 219.937 23.8011 219.851 24.455C219.765 25.1089 219.81 25.7733 219.982 26.41C220.154 27.0467 220.45 27.6431 220.853 28.1649C221.257 28.6866 221.759 29.1234 222.332 29.45L223.832 30.3C224.582 30.766 225.449 31.0088 226.332 31C227.439 31.0078 228.518 30.6479 229.398 29.9767C230.279 29.3056 230.911 28.3612 231.197 27.2917C231.483 26.2221 231.406 25.0879 230.978 24.0669C230.55 23.0459 229.795 22.1958 228.832 21.65Z" fill="#515BE0"/>
<path d="M201.132 17.2C201.889 17.6494 202.751 17.8909 203.632 17.9C204.739 17.9078 205.817 17.5479 206.698 16.8767C207.578 16.2056 208.211 15.2612 208.497 14.1917C208.783 13.1221 208.706 11.9879 208.278 10.9669C207.85 9.94591 207.095 9.09585 206.132 8.55003L204.582 7.65003C203.434 6.99817 202.074 6.82684 200.8 7.17342C199.526 7.52001 198.441 8.35637 197.782 9.50003C197.126 10.6421 196.947 11.9969 197.284 13.2701C197.621 14.5433 198.446 15.6321 199.582 16.3L201.132 17.2Z" fill="#515BE0"/>
<path d="M197.782 28.5C198.218 29.2557 198.845 29.8841 199.599 30.3226C200.353 30.7612 201.209 30.9947 202.082 31C202.966 31.0173 203.835 30.7739 204.582 30.3L206.132 29.45C206.705 29.1234 207.207 28.6866 207.611 28.1648C208.014 27.6431 208.31 27.0467 208.482 26.41C208.654 25.7733 208.699 25.1089 208.613 24.455C208.527 23.8011 208.312 23.1707 207.982 22.6C207.651 22.0312 207.211 21.5334 206.688 21.1349C206.164 20.7365 205.567 20.4453 204.93 20.2781C204.294 20.1108 203.631 20.0709 202.979 20.1604C202.327 20.25 201.7 20.4673 201.132 20.8L199.582 21.65C199.013 21.9808 198.515 22.4206 198.117 22.9443C197.718 23.4679 197.427 24.065 197.26 24.7014C197.093 25.3377 197.053 26.0008 197.142 26.6527C197.232 27.3046 197.449 27.9323 197.782 28.5Z" fill="#515BE0"/>
<path d="M230.682 9.49999C230.355 8.92705 229.918 8.4244 229.397 8.02098C228.875 7.61756 228.279 7.32134 227.642 7.14938C227.005 6.97743 226.341 6.93313 225.687 7.01905C225.033 7.10497 224.402 7.3194 223.832 7.64999L222.332 8.54999C221.369 9.09581 220.614 9.94587 220.186 10.9669C219.758 11.9879 219.681 13.1221 219.967 14.1916C220.253 15.2612 220.885 16.2056 221.766 16.8767C222.646 17.5478 223.725 17.9077 224.832 17.9C225.695 17.8822 226.539 17.641 227.282 17.2L228.832 16.35C229.405 16.0233 229.907 15.5866 230.311 15.0648C230.714 14.5431 231.01 13.9467 231.182 13.31C231.354 12.6733 231.399 12.0089 231.313 11.355C231.227 10.7011 231.012 10.0707 230.682 9.49999Z" fill="#515BE0"/>
<path d="M214.231 26.25C212.905 26.25 211.634 26.7768 210.696 27.7145C209.758 28.6521 209.231 29.9239 209.231 31.25V33C209.231 34.3261 209.758 35.5979 210.696 36.5355C211.634 37.4732 212.905 38 214.231 38C215.558 38 216.829 37.4732 217.767 36.5355C218.705 35.5979 219.231 34.3261 219.231 33V31.25C219.231 29.9239 218.705 28.6521 217.767 27.7145C216.829 26.7768 215.558 26.25 214.231 26.25Z" fill="#515BE0"/>
<path d="M219.231 5C219.231 3.67392 218.705 2.40215 217.767 1.46447C216.829 0.526785 215.558 0 214.231 0C212.905 0 211.634 0.526785 210.696 1.46447C209.758 2.40215 209.231 3.67392 209.231 5V6.75C209.231 8.07608 209.758 9.34785 210.696 10.2855C211.634 11.2232 212.905 11.75 214.231 11.75C215.558 11.75 216.829 11.2232 217.767 10.2855C218.705 9.34785 219.231 8.07608 219.231 6.75V5Z" fill="#515BE0"/>
<path d="M118.781 29.85C122.233 29.85 125.031 27.0518 125.031 23.6C125.031 20.1482 122.233 17.35 118.781 17.35C115.329 17.35 112.531 20.1482 112.531 23.6C112.531 27.0518 115.329 29.85 118.781 29.85Z" fill="#515BE0"/>
<path d="M246.782 176.7C243.632 174.7 240.432 176.1 236.782 177.6C235.901 178.054 234.957 178.374 233.982 178.55V95C238.331 94.9138 242.468 93.1033 245.483 89.9667C248.498 86.8302 250.143 82.6246 250.057 78.275C249.97 73.9255 248.16 69.7883 245.023 66.7736C241.887 63.759 237.681 62.1138 233.332 62.2H16.4817C13.2399 62.2321 10.08 63.2214 7.39862 65.0436C4.71728 66.8657 2.63412 69.4396 1.41079 72.4418C0.187465 75.444 -0.121494 78.7408 0.522719 81.918C1.16693 85.0953 2.73559 88.0114 5.03169 90.3C7.9224 93.3143 11.8599 95.1041 16.0317 95.3V178.8C15.248 178.627 14.479 178.393 13.7317 178.1H13.2317C9.83169 176.6 6.63169 175.15 3.48169 177.2C2.29242 178.169 1.35685 179.412 0.755775 180.824C0.154698 182.235 -0.0938185 183.771 0.0316884 185.3V245C0.0316884 246.326 0.558474 247.598 1.49616 248.536C2.43384 249.473 3.70561 250 5.03169 250H245.032C246.358 250 247.63 249.473 248.567 248.536C249.505 247.598 250.032 246.326 250.032 245V185.3C250.267 183.708 250.092 182.083 249.523 180.578C248.954 179.073 248.011 177.738 246.782 176.7ZM206.532 177.85C202.355 179.499 197.708 179.499 193.532 177.85C191.382 176.846 189.087 176.188 186.732 175.9C186.706 166.441 184.51 157.115 180.315 148.637C176.12 140.16 170.036 132.758 162.532 127V95H190.532V103.1C190.532 106.654 191.943 110.062 194.456 112.575C196.969 115.088 200.378 116.5 203.932 116.5C207.486 116.5 210.894 115.088 213.407 112.575C215.92 110.062 217.332 106.654 217.332 103.1V95H224.232V178.05C221.53 176.549 218.497 175.744 215.407 175.709C212.317 175.675 209.266 176.41 206.532 177.85ZM207.332 103.2C207.332 104.102 206.973 104.967 206.336 105.604C205.698 106.242 204.833 106.6 203.932 106.6C203.03 106.6 202.165 106.242 201.528 105.604C200.89 104.967 200.532 104.102 200.532 103.2V72.25H207.332V103.2ZM190.532 85H88.8817V72.25H190.532V85ZM118.682 95H152.532V150C152.428 150.875 152.007 151.682 151.348 152.268C150.689 152.853 149.838 153.176 148.957 153.176C148.075 153.176 147.224 152.853 146.566 152.268C145.907 151.682 145.485 150.875 145.382 150V121.7C145.486 120.103 145.262 118.501 144.723 116.993C144.183 115.486 143.34 114.106 142.246 112.937C141.151 111.769 139.829 110.838 138.36 110.201C136.891 109.564 135.308 109.236 133.707 109.236C132.106 109.236 130.522 109.564 129.053 110.201C127.584 110.838 126.262 111.769 125.168 112.937C124.073 114.106 123.23 115.486 122.691 116.993C122.151 118.501 121.927 120.103 122.032 121.7C121.963 122.095 121.758 122.452 121.451 122.71C121.145 122.968 120.757 123.11 120.357 123.11C119.956 123.11 119.569 122.968 119.262 122.71C118.956 122.452 118.75 122.095 118.682 121.7V95ZM78.6817 98.7C78.6817 99.1376 78.5079 99.5573 78.1984 99.8667C77.889 100.176 77.4693 100.35 77.0317 100.35C76.8131 100.357 76.5955 100.319 76.3921 100.239C76.1888 100.158 76.0041 100.037 75.8495 99.8822C75.6949 99.7276 75.5736 99.5429 75.4931 99.3396C75.4127 99.1362 75.3747 98.9186 75.3817 98.7C75.1876 95.7356 73.8732 92.9561 71.705 90.9253C69.5369 88.8945 66.6774 87.7644 63.7067 87.7644C60.736 87.7644 57.8765 88.8945 55.7084 90.9253C53.5402 92.9561 52.2258 95.7356 52.0317 98.7V127.05C52.0317 128.005 51.6524 128.92 50.9773 129.596C50.3021 130.271 49.3865 130.65 48.4317 130.65C47.4769 130.65 46.5612 130.271 45.8861 129.596C45.211 128.92 44.8317 128.005 44.8317 127.05V90V72.25H78.6817V98.7ZM48.4317 140.65C52.0386 140.65 55.4978 139.217 58.0483 136.667C60.5988 134.116 62.0317 130.657 62.0317 127.05V98.8C62.0317 98.3624 62.2055 97.9427 62.515 97.6333C62.8244 97.3238 63.2441 97.15 63.6817 97.15C63.9025 97.1433 64.1225 97.181 64.3285 97.261C64.5345 97.3409 64.7223 97.4613 64.8809 97.6152C65.0394 97.7691 65.1655 97.9533 65.2515 98.1568C65.3375 98.3603 65.3818 98.5791 65.3817 98.8C65.3817 101.89 66.6091 104.853 68.7939 107.038C70.9787 109.223 73.9419 110.45 77.0317 110.45C80.1215 110.45 83.0847 109.223 85.2695 107.038C87.4543 104.853 88.6817 101.89 88.6817 98.8V95H108.682V116.3C95.666 119.911 84.1889 127.681 76.0009 138.424C67.813 149.167 63.3637 162.293 63.3317 175.8C60.9766 176.088 58.6817 176.746 56.5317 177.75C52.3552 179.399 47.7082 179.399 43.5317 177.75C40.9187 176.345 37.9983 175.61 35.0317 175.61C32.065 175.61 29.1446 176.345 26.5317 177.75H25.8317V95H35.0317V127.05C35.0185 128.844 35.3605 130.624 36.0381 132.285C36.7156 133.947 37.7153 135.458 38.9795 136.731C40.2437 138.005 41.7474 139.016 43.404 139.705C45.0606 140.395 46.8373 140.75 48.6317 140.75L48.4317 140.65ZM73.1317 175.65C73.238 164.594 76.876 153.861 83.5145 145.018C90.1529 136.176 99.4442 129.688 110.032 126.5C111.141 128.934 113.054 130.912 115.45 132.103C117.845 133.293 120.577 133.622 123.187 133.036C125.797 132.449 128.126 130.983 129.782 128.882C131.438 126.781 132.321 124.175 132.282 121.5C132.239 121.256 132.251 121.005 132.316 120.766C132.38 120.527 132.496 120.305 132.656 120.115C132.816 119.925 133.015 119.773 133.239 119.668C133.464 119.564 133.709 119.51 133.957 119.51C134.205 119.51 134.449 119.564 134.674 119.668C134.899 119.773 135.098 119.925 135.257 120.115C135.417 120.305 135.533 120.527 135.598 120.766C135.662 121.005 135.674 121.256 135.632 121.5V150C135.842 153.458 137.363 156.705 139.886 159.08C142.409 161.454 145.742 162.776 149.207 162.776C152.671 162.776 156.005 161.454 158.527 159.08C161.05 156.705 162.572 153.458 162.782 150V140.45C171.883 150.01 176.966 162.7 176.982 175.9V177.75C172.75 179.473 168.013 179.473 163.782 177.75C161.169 176.345 158.248 175.61 155.282 175.61C152.315 175.61 149.395 176.345 146.782 177.75C142.605 179.399 137.958 179.399 133.782 177.75C131.169 176.345 128.248 175.61 125.282 175.61C122.315 175.61 119.395 176.345 116.782 177.75C112.605 179.399 107.958 179.399 103.782 177.75C101.169 176.345 98.2483 175.61 95.2817 175.61C92.315 175.61 89.3946 176.345 86.7817 177.75C82.6052 179.399 77.9582 179.399 73.7817 177.75L73.1317 175.65ZM240.032 78.65C240.005 80.3433 239.314 81.9583 238.108 83.1463C236.901 84.3344 235.275 85.0002 233.582 85H217.332V72.25H233.582C234.426 72.2434 235.264 72.4041 236.046 72.7227C236.828 73.0414 237.54 73.5118 238.14 74.1068C238.739 74.7017 239.215 75.4095 239.54 76.1892C239.865 76.969 240.032 77.8053 240.032 78.65ZM10.0317 78.65C10.0317 77.8053 10.1988 76.969 10.5236 76.1892C10.8484 75.4095 11.3242 74.7017 11.9239 74.1068C12.5235 73.5118 13.2349 73.0414 14.0172 72.7227C14.7994 72.4041 15.637 72.2434 16.4817 72.25H35.0317V85H16.4817C14.7921 84.9875 13.1738 84.3175 11.9698 83.1321C10.7658 81.9468 10.0706 80.3392 10.0317 78.65ZM30.5817 186.95C31.9066 186.115 33.4407 185.672 35.0067 185.672C36.5727 185.672 38.1068 186.115 39.4317 186.95C46.2042 189.747 53.8092 189.747 60.5817 186.95C61.9066 186.115 63.4407 185.672 65.0067 185.672C66.5727 185.672 68.1068 186.115 69.4317 186.95C76.2042 189.747 83.8092 189.747 90.5817 186.95C91.9066 186.115 93.4407 185.672 95.0067 185.672C96.5727 185.672 98.1068 186.115 99.4317 186.95C106.204 189.747 113.809 189.747 120.582 186.95C121.907 186.115 123.441 185.672 125.007 185.672C126.573 185.672 128.107 186.115 129.432 186.95C136.204 189.747 143.809 189.747 150.582 186.95C151.907 186.115 153.441 185.672 155.007 185.672C156.573 185.672 158.107 186.115 159.432 186.95C166.204 189.747 173.809 189.747 180.582 186.95C181.907 186.115 183.441 185.672 185.007 185.672C186.573 185.672 188.107 186.115 189.432 186.95C196.204 189.747 203.809 189.747 210.582 186.95C211.907 186.115 213.441 185.672 215.007 185.672C216.573 185.672 218.107 186.115 219.432 186.95C226.054 189.543 233.41 189.543 240.032 186.95V198.55C237.545 199.956 234.785 200.813 231.939 201.063C229.093 201.314 226.226 200.951 223.532 200C220.919 198.595 217.998 197.86 215.032 197.86C212.065 197.86 209.145 198.595 206.532 200C202.365 201.701 197.698 201.701 193.532 200C190.919 198.595 187.998 197.86 185.032 197.86C182.065 197.86 179.145 198.595 176.532 200C172.365 201.701 167.698 201.701 163.532 200C160.919 198.595 157.998 197.86 155.032 197.86C152.065 197.86 149.145 198.595 146.532 200C142.365 201.701 137.698 201.701 133.532 200C130.919 198.595 127.998 197.86 125.032 197.86C122.065 197.86 119.145 198.595 116.532 200C112.365 201.701 107.698 201.701 103.532 200C100.919 198.595 97.9983 197.86 95.0317 197.86C92.065 197.86 89.1446 198.595 86.5317 200C82.3652 201.701 77.6982 201.701 73.5317 200C70.9187 198.595 67.9983 197.86 65.0317 197.86C62.065 197.86 59.1446 198.595 56.5317 200C52.3652 201.701 47.6982 201.701 43.5317 200C40.9187 198.595 37.9983 197.86 35.0317 197.86C32.065 197.86 29.1446 198.595 26.5317 200C23.855 200.989 20.9977 201.393 18.1518 201.186C15.3059 200.979 12.5372 200.165 10.0317 198.8V187.2C16.6622 189.745 24.0151 189.655 30.5817 186.95ZM10.0317 240V209.6C16.6303 212.225 23.9831 212.225 30.5817 209.6C31.9066 208.765 33.4407 208.322 35.0067 208.322C36.5727 208.322 38.1068 208.765 39.4317 209.6C46.2042 212.397 53.8092 212.397 60.5817 209.6C61.9066 208.765 63.4407 208.322 65.0067 208.322C66.5727 208.322 68.1068 208.765 69.4317 209.6C76.2042 212.397 83.8092 212.397 90.5817 209.6C91.9066 208.765 93.4407 208.322 95.0067 208.322C96.5727 208.322 98.1068 208.765 99.4317 209.6C106.204 212.397 113.809 212.397 120.582 209.6C121.907 208.765 123.441 208.322 125.007 208.322C126.573 208.322 128.107 208.765 129.432 209.6C136.204 212.397 143.809 212.397 150.582 209.6C151.907 208.765 153.441 208.322 155.007 208.322C156.573 208.322 158.107 208.765 159.432 209.6C166.204 212.397 173.809 212.397 180.582 209.6C181.907 208.765 183.441 208.322 185.007 208.322C186.573 208.322 188.107 208.765 189.432 209.6C196.204 212.397 203.809 212.397 210.582 209.6C211.907 208.765 213.441 208.322 215.007 208.322C216.573 208.322 218.107 208.765 219.432 209.6C226.048 212.223 233.415 212.223 240.032 209.6V240H10.0317Z" fill="#4C4C4C"/>
<path d="M167.382 53.7C170.834 53.7 173.632 50.9018 173.632 47.45C173.632 43.9982 170.834 41.2 167.382 41.2C163.93 41.2 161.132 43.9982 161.132 47.45C161.132 50.9018 163.93 53.7 167.382 53.7Z" fill="#515BE0"/>
<path d="M107.432 164.85C110.883 164.85 113.682 162.052 113.682 158.6C113.682 155.148 110.883 152.35 107.432 152.35C103.98 152.35 101.182 155.148 101.182 158.6C101.182 162.052 103.98 164.85 107.432 164.85Z" fill="#515BE0"/>
</svg>
