<svg width="260" height="265" viewBox="0 0 260 265" fill="none" xmlns="http://www.w3.org/2000/svg">
<path fill-rule="evenodd" clip-rule="evenodd" d="M130.542 253.438C194.669 253.438 246.906 217.193 249.325 171.875H11.7607C14.1795 217.194 66.4428 253.438 130.543 253.438H130.542Z" fill="#CFEDFB"/>
<path fill-rule="evenodd" clip-rule="evenodd" d="M33.607 169.612H252.67C253.931 169.612 254.96 170.643 254.96 171.875C254.96 173.106 253.931 174.112 252.67 174.112H33.607C32.3462 174.112 31.3167 173.107 31.3167 171.875C31.3167 170.643 32.3462 169.612 33.607 169.612ZM21.5386 169.612H8.4154C7.1545 169.612 6.125 170.643 6.125 171.875C6.125 173.106 7.1545 174.112 8.4154 174.112H21.5386C22.7995 174.112 23.829 173.107 23.829 171.875C23.829 170.643 22.7995 169.612 21.5386 169.612Z" fill="black"/>
<path fill-rule="evenodd" clip-rule="evenodd" d="M4.99205 195.401C7.74523 195.401 9.98411 193.214 9.98411 190.524C9.98411 187.834 7.74523 185.648 4.99205 185.648C2.23888 185.648 0 187.834 0 190.524C0 193.214 2.23888 195.401 4.99205 195.401Z" fill="#FFD65B"/>
<path fill-rule="evenodd" clip-rule="evenodd" d="M254.188 161.468C256.941 161.468 259.18 159.282 259.18 156.592C259.18 153.902 256.941 151.716 254.188 151.716C251.435 151.716 249.195 153.903 249.195 156.592C249.195 159.281 251.435 161.468 254.188 161.468Z" fill="#F69173"/>
<path fill-rule="evenodd" clip-rule="evenodd" d="M80.3383 265C81.7013 265 82.8338 263.894 82.8338 262.562C82.8338 261.231 81.7013 260.124 80.3383 260.124C78.9752 260.124 77.8418 261.231 77.8418 262.562C77.8418 263.894 78.9743 265 80.3383 265Z" fill="#D1E287"/>
<path fill-rule="evenodd" clip-rule="evenodd" d="M239.211 233.958C241.964 233.958 244.203 231.771 244.203 229.081C244.203 226.391 241.964 224.205 239.211 224.205C236.458 224.205 234.219 226.391 234.219 229.081C234.219 231.771 236.458 233.958 239.211 233.958Z" fill="#8DD7F7"/>
<path fill-rule="evenodd" clip-rule="evenodd" d="M221.918 222.848C200.122 241.523 167.288 253.438 130.541 253.438C93.7943 253.438 60.9595 241.523 39.1646 222.848C25.1149 209.124 41.7379 188.288 59.5188 198.517C85.5085 213.473 148.142 249.743 221.918 222.848Z" fill="#B6E4FA"/>
<path fill-rule="evenodd" clip-rule="evenodd" d="M45.4957 4.85105C46.8849 4.85105 47.9912 3.77003 47.9912 2.41332C47.9912 1.05662 46.8849 0 45.4957 0C44.1064 0 43.0254 1.08102 43.0254 2.41332C43.0254 3.74562 44.1317 4.85105 45.4957 4.85105Z" fill="#D1E287"/>
<path fill-rule="evenodd" clip-rule="evenodd" d="M248.398 79.7798C249.762 79.7798 250.893 78.6996 250.893 77.342C250.893 75.9844 249.762 74.9287 248.398 74.9287C247.034 74.9287 245.901 76.0097 245.901 77.342C245.901 78.6743 247.033 79.7798 248.398 79.7798Z" fill="#FFD65B"/>
<path fill-rule="evenodd" clip-rule="evenodd" d="M10.5512 82.8963C11.9152 82.8963 13.0468 81.7899 13.0468 80.4585C13.0468 79.1271 11.9152 78.0208 10.5512 78.0208C9.1873 78.0208 8.05566 79.1262 8.05566 80.4585C8.05566 81.7908 9.1873 82.8963 10.5512 82.8963Z" fill="#F69173"/>
<path d="M69.7254 82.8358C68.5332 87.986 69.2201 95.207 66.213 98.2132C62.9536 101.477 57.6597 101.481 54.3922 98.2132C51.1293 94.9503 51.1338 89.6563 54.3967 86.397C57.3578 83.4359 64.6592 84.0135 69.7254 82.8358Z" fill="#86DCFD"/>
<path d="M136.232 98.7736C135.037 103.925 135.728 111.146 132.718 114.151C129.459 117.414 124.165 117.419 120.897 114.151C117.634 110.892 117.639 105.598 120.902 102.335C123.863 99.3711 131.166 99.9496 136.232 98.7736Z" fill="#86DCFD"/>
<path d="M215.764 104.971C214.572 110.123 215.256 117.344 212.252 120.353C208.988 123.611 203.695 123.615 200.429 120.353C197.166 117.091 197.17 111.796 200.436 108.532C203.397 105.571 210.699 106.149 215.764 104.971Z" fill="#86DCFD"/>
<path d="M181.644 136.275C181.661 139.46 180.652 142.47 178.849 145.134C177.504 147.116 175.725 148.906 173.596 150.432C171.413 148.91 169.586 147.107 168.215 145.104C166.417 142.486 165.395 139.521 165.378 136.374C165.361 133.296 166.3 130.381 167.991 127.785C169.352 125.695 171.284 123.812 173.508 122.216C175.72 123.759 177.483 125.587 178.863 127.626C180.625 130.221 181.622 133.16 181.643 136.274L181.644 136.275Z" fill="#80AF52"/>
<path d="M173.509 176.538V176.922C171.09 177.736 168.654 178.129 166.317 178.066C163.186 177.975 160.225 177.057 157.718 175.229C155.265 173.443 153.504 170.977 152.453 168.103C151.625 165.852 151.229 163.347 151.267 160.717C153.793 159.865 156.337 159.476 158.769 159.588C161.787 159.725 164.633 160.642 167.058 162.412C169.538 164.216 171.305 166.714 172.358 169.629C173.12 171.746 173.504 174.08 173.509 176.538H173.509Z" fill="#80AF52"/>
<path d="M196.319 160.279C196.359 162.972 195.951 165.541 195.102 167.852C194.02 170.797 192.22 173.324 189.705 175.16C187.132 177.035 184.097 177.971 180.885 178.067C178.507 178.135 176.024 177.734 173.561 176.906V174.987C173.692 173.022 174.075 171.143 174.696 169.414C175.772 166.425 177.584 163.865 180.126 162.012C182.613 160.201 185.528 159.261 188.622 159.118C191.115 159.002 193.724 159.402 196.318 160.279H196.319Z" fill="#70993F"/>
<path d="M207.138 186.512C207.195 190.486 206.599 194.271 205.35 197.676C203.754 202.022 201.099 205.746 197.388 208.45C193.593 211.217 189.121 212.601 184.381 212.735C184.117 212.743 183.855 212.747 183.591 212.747C180.32 212.747 176.931 212.158 173.559 211.027C173.578 211.018 173.59 211.014 173.607 211.009C173.62 210.195 173.603 209.384 173.559 208.586C173.723 205.549 174.289 202.655 175.253 199.982C176.841 195.577 179.512 191.798 183.263 189.067C186.932 186.399 191.229 185.015 195.796 184.799C199.468 184.63 203.314 185.217 207.136 186.511L207.138 186.512Z" fill="#70993F"/>
<path d="M173.519 207.89L173.514 210.209C173.51 210.41 173.51 210.608 173.514 210.811C173.51 210.876 173.514 210.946 173.514 211.009V211.041C170.16 212.166 166.789 212.747 163.53 212.747C163.266 212.747 163.005 212.742 162.741 212.734C158.004 212.601 153.533 211.216 149.733 208.449C146.027 205.745 143.372 202.021 141.776 197.676C140.527 194.271 139.927 190.486 139.984 186.511C143.807 185.217 147.653 184.63 151.33 184.799C155.89 185.014 160.193 186.399 163.857 189.067C167.608 191.798 170.28 195.577 171.868 199.982C172.757 202.448 173.307 205.103 173.519 207.889V207.89Z" fill="#80AF52"/>
<path d="M105.789 160.279C105.827 162.972 105.417 165.541 104.573 167.852C103.49 170.797 101.688 173.324 99.1751 175.16C96.5999 177.035 93.5648 177.971 90.3542 178.067C87.9753 178.135 85.4905 177.734 83.0293 176.906V174.987C83.1585 173.022 83.5418 171.143 84.1627 169.414C85.2411 166.425 87.0506 163.865 89.5941 162.012C92.0824 160.201 94.9956 159.261 98.0922 159.118C100.585 159.002 103.192 159.402 105.788 160.279H105.789Z" fill="#70993F"/>
<path d="M116.608 186.512C116.663 190.486 116.066 194.271 114.818 197.676C113.225 202.022 110.569 205.746 106.856 208.45C103.063 211.217 98.592 212.601 93.8485 212.735C93.5864 212.743 93.3225 212.747 93.0612 212.747C89.7874 212.747 86.3988 212.158 83.0283 211.027C83.0455 211.018 83.0581 211.014 83.0753 211.009C83.0898 210.195 83.0708 209.384 83.0283 208.586C83.1928 205.549 83.7568 202.655 84.7213 199.982C86.3085 195.577 88.983 191.798 92.7313 189.067C96.4001 186.399 100.7 185.015 105.263 184.799C108.938 184.63 112.782 185.217 116.606 186.511L116.608 186.512Z" fill="#70993F"/>
<path d="M82.9871 207.89L82.9826 210.209C82.979 210.41 82.979 210.608 82.9826 210.811C82.979 210.876 82.9826 210.946 82.9826 211.009V211.041C79.6292 212.166 76.2578 212.747 72.9967 212.747C72.7346 212.747 72.4715 212.742 72.2094 212.734C67.4704 212.601 62.9999 211.216 59.2028 208.449C55.4942 205.745 52.8387 202.021 51.2451 197.676C49.9942 194.271 49.394 190.486 49.451 186.511C53.2761 185.217 57.1194 184.63 60.7963 184.799C65.3572 185.014 69.6614 186.399 73.3257 189.067C77.074 191.798 79.7486 195.577 81.3385 199.982C82.227 202.448 82.7738 205.103 82.9871 207.889V207.89Z" fill="#80AF52"/>
<path d="M82.9802 176.538V176.922C80.5605 177.736 78.1246 178.129 75.7881 178.066C72.6535 177.975 69.6961 177.057 67.1869 175.229C64.7338 173.443 62.9758 170.977 61.9237 168.103C61.0949 165.852 60.6999 163.347 60.7378 160.717C63.2642 159.865 65.8076 159.476 68.239 159.588C71.2552 159.725 74.1006 160.642 76.5284 162.412C79.0059 164.216 80.7757 166.714 81.8259 169.629C82.5906 171.746 82.9739 174.08 82.9784 176.538H82.9802Z" fill="#80AF52"/>
<path d="M91.1122 136.275C91.1312 139.46 90.1224 142.47 88.3192 145.134C86.9743 147.116 85.1937 148.906 83.0642 150.432C80.8831 148.91 79.0555 147.107 77.6834 145.104C75.8875 142.486 74.8652 139.521 74.8489 136.374C74.8299 133.296 75.7718 130.381 77.4593 127.785C78.8232 125.695 80.7539 123.812 82.9792 122.216C85.1891 123.759 86.9535 125.587 88.3319 127.626C90.0944 130.221 91.0914 133.16 91.1122 136.274V136.275Z" fill="#80AF52"/>
<path d="M173.509 217.06H173.498C171.117 217.054 169.192 215.117 169.198 212.737L169.202 211.028C169.206 208.652 171.136 206.714 173.512 206.714H173.519C175.897 206.716 177.823 208.631 177.823 211.009L177.818 212.757C177.815 215.136 175.885 217.06 173.509 217.06Z" fill="black"/>
<path d="M173.514 215.124C171.133 215.124 169.203 213.192 169.203 210.812L169.208 207.882L169.283 150.426C169.287 148.047 171.217 146.122 173.595 146.122H173.601C175.982 146.124 177.909 148.058 177.906 150.438L177.823 210.812C177.823 213.192 175.894 215.124 173.513 215.124H173.514Z" fill="#A28671"/>
<path d="M82.9793 217.06H82.9657C80.5849 217.054 78.6597 215.117 78.666 212.737L78.6696 211.028C78.676 208.652 80.6057 206.714 82.982 206.714H82.9865C85.3646 206.716 87.2925 208.631 87.2925 211.009L87.2889 212.759C87.2826 215.136 85.3528 217.059 82.9784 217.059L82.9793 217.06Z" fill="black"/>
<path d="M82.9832 215.124C80.6006 215.124 78.6709 213.192 78.6709 210.812L78.6754 207.882L78.7531 150.426C78.7559 148.047 80.6865 146.122 83.0637 146.122H83.07C85.4508 146.124 87.3778 148.058 87.376 150.438L87.2938 210.812C87.2938 213.192 85.3649 215.124 82.9832 215.124Z" fill="#A28671"/>
<path d="M112.303 52.7153H58.3756C54.2259 52.7153 50.9774 49.8293 50.9774 45.8125C50.9774 41.7957 54.2955 38.5445 58.3756 38.5445C59.2261 38.5445 60.0622 38.7542 60.8576 39.0371C62.2188 39.5189 63.731 39.3218 64.8852 38.4541C66.0404 37.5891 66.683 36.2171 66.6017 34.7754C66.5935 34.6344 66.5935 34.5024 66.5935 34.3578C66.5935 28.1266 71.6606 23.0577 77.891 23.0577C82.2874 23.0577 86.3195 25.6464 88.1598 29.6433C89.154 31.8089 91.7147 32.7553 93.8777 31.761C96.0397 30.7649 96.987 28.2043 95.9909 26.0432C92.7487 18.9948 85.6434 13.7949 77.891 13.7949C68.3877 13.7949 60.4156 20.1771 58.4398 28.7638H58.3765C49.543 28.7638 42.3555 36.3156 42.3555 45.1491C42.3555 53.9826 49.393 61.303 58.3765 61.303H112.304C114.685 61.303 116.614 59.3904 116.614 57.0096C116.614 54.6288 114.686 52.7162 112.304 52.7162L112.303 52.7153Z" fill="#86DCFD"/>
<path d="M197.061 58.4983C195.121 50.5425 187.934 44.6176 179.389 44.6176C172.308 44.6176 165.822 48.7763 162.861 55.2118C161.867 57.3757 162.815 59.9363 164.978 60.9306C167.14 61.9248 169.701 60.9767 170.697 58.8137C172.253 55.4279 175.664 53.2405 179.389 53.2405C184.664 53.2405 188.955 57.5321 188.955 62.8061C188.955 62.9435 188.947 63.0782 188.941 63.2138C188.877 64.6464 189.532 66.0194 190.684 66.8717C191.838 67.724 193.342 67.9482 194.693 67.4664C195.347 67.2341 196.033 67.1166 196.736 67.1166C200.098 67.1166 202.832 69.5363 202.832 72.8987C202.832 76.2611 200.156 78.4755 196.736 78.4755H148.802C146.421 78.4755 144.491 80.6141 144.491 82.9949C144.491 85.3756 146.421 87.5142 148.802 87.5142H196.736C204.989 87.5142 211.454 81.2468 211.454 73.1075C211.454 64.9682 205.027 58.6709 197.061 58.4983Z" fill="#86DCFD"/>
<path d="M99.3649 92.0407C98.5415 92.0407 97.7126 91.8048 96.9778 91.3149C94.9956 89.9962 94.4587 87.3198 95.7802 85.3368L104.403 72.4042C105.724 70.423 108.401 69.8879 110.38 71.2075C112.362 72.529 112.897 75.2053 111.577 77.1875L102.954 90.12C102.124 91.3655 100.757 92.0407 99.364 92.0407H99.3649Z" fill="#86DCFD"/>
<path d="M51.9428 135.149C51.1194 135.149 50.2906 134.915 49.5557 134.426C47.5735 133.104 47.0393 130.428 48.3581 128.448L56.981 115.514C58.3024 113.532 60.9788 112.998 62.9591 114.317C64.9413 115.639 65.4755 118.315 64.1559 120.296L55.5339 133.228C54.7023 134.475 53.3366 135.149 51.9428 135.149Z" fill="#86DCFD"/>
<path d="M142.476 135.149C141.827 135.149 141.169 135.003 140.551 134.693C138.421 133.629 137.558 131.04 138.621 128.909L142.934 120.288C143.998 118.157 146.587 117.295 148.718 118.36C150.847 119.423 151.711 122.013 150.645 124.143L146.334 132.766C145.579 134.277 144.056 135.149 142.476 135.149Z" fill="#86DCFD"/>
<path d="M224.388 217.06H34.7032C32.3224 217.06 30.3936 215.128 30.3936 212.748C30.3936 210.367 32.3233 208.437 34.7032 208.437H224.389C226.769 208.437 228.699 210.369 228.699 212.748C228.699 215.127 226.769 217.06 224.389 217.06H224.388Z" fill="#707487"/>
</svg>
