<svg width="309" height="230" viewBox="0 0 309 230" fill="none" xmlns="http://www.w3.org/2000/svg">
<path fill-rule="evenodd" clip-rule="evenodd" d="M53.4117 74.2364L38.1107 100.738L43.4594 80.7766L32.0559 100.529L34.3366 92.017L29.8285 99.8271L29.8284 85.8082L25.7195 101.143L17.8408 71.7419L17.8405 104.42L14.8026 93.0796L11.2105 106.486L3.53975 77.8586C3.53975 77.8586 3.81437 107.32 3.54014 108.343C3.26588 109.367 0.543515 97.1575 0.543515 97.1575L0.541992 112.784C18.7561 115.35 33.784 117.241 43.3607 118.401L54.7083 98.7465L47.7728 105.681L51.4914 91.8033L46.2908 100.811L53.4117 74.2364Z" fill="#009688"/>
<path d="M258.41 125.768C258.41 128.38 246.998 130.884 226.684 132.731C206.371 134.578 178.82 135.615 150.092 135.615C121.364 135.615 93.8128 134.578 73.4992 132.731C53.1855 130.884 41.7734 128.38 41.7734 125.768C41.7734 123.156 53.1855 120.652 73.4992 118.805C93.8128 116.958 121.364 115.921 150.092 115.921C178.82 115.921 206.371 116.958 226.684 118.805C246.998 120.652 258.41 123.156 258.41 125.768Z" fill="#0288D1"/>
<path fill-rule="evenodd" clip-rule="evenodd" d="M299.815 64.4875L291.074 97.1068V74.3015L284.56 98.6129V88.8887L281.985 98.5014L277.981 83.5581V101.078L261.186 71.9883L270.519 106.821L264.041 95.6006V110.917L247.688 82.5928C247.688 82.5928 256.396 113.918 256.396 115.087C256.396 116.257 250.007 104.02 250.007 104.02L254.469 120.678C274.617 118.21 291.176 115.934 301.715 114.435L308.197 90.2434L302.785 99.6165V83.7612L299.815 94.8484V64.4875Z" fill="#009688"/>
<path fill-rule="evenodd" clip-rule="evenodd" d="M38.7799 79.6074L46.7004 109.166V88.5007L52.6031 110.531V101.719L54.9361 110.43L58.5646 96.8887V112.764L73.7844 86.4044L65.327 117.969L71.1965 107.801V121.68L86.0151 96.014C86.0151 96.014 78.1247 124.4 78.1247 125.46C78.1247 126.519 83.9143 115.431 83.9143 115.431L79.8711 130.525C61.6136 128.289 46.6082 126.227 37.0576 124.868L31.1836 102.947L36.088 111.44V97.0727L38.7799 107.12V79.6074Z" fill="#00695C"/>
<path fill-rule="evenodd" clip-rule="evenodd" d="M266.261 85.0982L259.477 110.414V92.7148L254.422 111.582V104.036L252.424 111.496L249.316 99.8986V113.495L236.281 90.9194L243.525 117.953L238.498 109.245V121.131L225.807 99.1495C225.807 99.1495 232.564 123.46 232.564 124.368C232.564 125.275 227.606 115.779 227.606 115.779L231.069 128.706C246.705 126.791 259.556 125.025 267.736 123.862L272.767 105.087L268.566 112.361V100.056L266.261 108.661V85.0982Z" fill="#00695C"/>
<path fill-rule="evenodd" clip-rule="evenodd" d="M0 112.322C19.3082 181.502 82.3349 229.351 154.159 229.356C225.927 229.282 288.872 181.447 308.165 112.322C308.165 112.322 205.443 127.764 154.083 127.764C102.722 127.764 0 112.322 0 112.322Z" fill="#3E2723"/>
<path fill-rule="evenodd" clip-rule="evenodd" d="M10.1191 139.974C23.2445 166.947 43.6851 189.688 69.1101 205.606C94.5351 221.523 123.921 229.976 153.918 230C183.899 229.958 213.265 221.497 238.672 205.581C264.079 189.664 284.505 166.932 297.623 139.974H10.1191Z" fill="#4E342E"/>
<path d="M49.3066 65.8551C49.3066 67.2873 48.7377 68.6608 47.725 69.6734C46.7123 70.6861 45.3389 71.255 43.9067 71.255C42.4746 71.255 41.1011 70.6861 40.0884 69.6734C39.0757 68.6608 38.5068 67.2873 38.5068 65.8551C38.5068 65.146 38.6465 64.4438 38.9179 63.7887C39.1892 63.1336 39.587 62.5383 40.0884 62.0368C40.5898 61.5354 41.1851 61.1377 41.8403 60.8663C42.4954 60.5949 43.1976 60.4553 43.9067 60.4553C44.6158 60.4553 45.318 60.5949 45.9732 60.8663C46.6283 61.1377 47.2236 61.5354 47.725 62.0368C48.2264 62.5383 48.6242 63.1336 48.8955 63.7887C49.1669 64.4438 49.3066 65.146 49.3066 65.8551Z" fill="#00897B"/>
<path d="M46.3516 47.1545H48.9662H51.5809H54.1956H56.8103V120.365H46.3516V47.1545Z" fill="#3E2723"/>
<path d="M59.8991 53.6012L63.8371 55.8748L56.4478 68.6735L52.5098 66.3998L59.8991 53.6012Z" fill="#3E2723"/>
<path d="M46.3505 61.0805C46.3505 61.7896 46.2109 62.4918 45.9395 63.1469C45.6681 63.8021 45.2704 64.3974 44.7689 64.8988C44.2675 65.4002 43.6722 65.798 43.0171 66.0693C42.362 66.3407 41.6598 66.4804 40.9507 66.4804C40.2415 66.4804 39.5394 66.3407 38.8842 66.0693C38.2291 65.798 37.6338 65.4002 37.1324 64.8988C36.6309 64.3974 36.2332 63.8021 35.9618 63.1469C35.6904 62.4918 35.5508 61.7896 35.5508 61.0805C35.5508 60.3714 35.6904 59.6692 35.9618 59.014C36.2332 58.3589 36.6309 57.7636 37.1324 57.2622C37.6338 56.7608 38.2291 56.363 38.8842 56.0917C39.5394 55.8203 40.2415 55.6806 40.9507 55.6806C41.6598 55.6806 42.362 55.8203 43.0171 56.0917C43.6722 56.363 44.2675 56.7608 44.7689 57.2622C45.2704 57.7636 45.6681 58.3589 45.9395 59.014C46.2109 59.6692 46.3505 60.3714 46.3505 61.0805Z" fill="#00695C"/>
<path d="M39.8701 58.0111C39.8701 59.4432 39.3011 60.8167 38.2885 61.8294C37.2758 62.842 35.9023 63.411 34.4702 63.411C33.0381 63.411 31.6646 62.842 30.6519 61.8294C29.6392 60.8167 29.0703 59.4432 29.0703 58.0111C29.0703 57.302 29.21 56.5998 29.4814 55.9446C29.7527 55.2895 30.1505 54.6942 30.6519 54.1928C31.1533 53.6914 31.7486 53.2936 32.4037 53.0222C33.0589 52.7509 33.7611 52.6112 34.4702 52.6112C35.1793 52.6112 35.8815 52.7509 36.5366 53.0222C37.1918 53.2936 37.7871 53.6914 38.2885 54.1928C38.7899 54.6942 39.1877 55.2895 39.459 55.9446C39.7304 56.5998 39.8701 57.302 39.8701 58.0111Z" fill="#00897B"/>
<path d="M39.1894 51.1902C39.1894 52.6223 38.6205 53.9958 37.6078 55.0085C36.5951 56.0212 35.2217 56.5901 33.7895 56.5901C33.0804 56.5901 32.3782 56.4504 31.7231 56.1791C31.0679 55.9077 30.4727 55.5099 29.9712 55.0085C29.4698 54.5071 29.0721 53.9118 28.8007 53.2567C28.5293 52.6015 28.3896 51.8993 28.3896 51.1902C28.3896 50.4811 28.5293 49.7789 28.8007 49.1238C29.0721 48.4686 29.4698 47.8734 29.9712 47.3719C30.4727 46.8705 31.0679 46.4728 31.7231 46.2014C32.3782 45.93 33.0804 45.7903 33.7895 45.7903C35.2217 45.7903 36.5951 46.3593 37.6078 47.3719C38.6205 48.3846 39.1894 49.7581 39.1894 51.1902Z" fill="#00897B"/>
<path d="M41.3496 44.4829C41.3496 45.9151 40.7806 47.2886 39.768 48.3012C38.7553 49.3139 37.3818 49.8828 35.9497 49.8828C34.5175 49.8828 33.1441 49.3139 32.1314 48.3012C31.1187 47.2886 30.5498 45.9151 30.5498 44.4829C30.5498 43.7738 30.6895 43.0716 30.9608 42.4165C31.2322 41.7614 31.63 41.1661 32.1314 40.6647C32.6328 40.1632 33.2281 39.7655 33.8832 39.4941C34.5384 39.2227 35.2406 39.0831 35.9497 39.0831C36.6588 39.0831 37.361 39.2227 38.0161 39.4941C38.6713 39.7655 39.2665 40.1632 39.768 40.6647C40.2694 41.1661 40.6672 41.7614 40.9385 42.4165C41.2099 43.0716 41.3496 43.7738 41.3496 44.4829Z" fill="#00897B"/>
<path d="M35.2099 39.7083C35.2099 40.4174 35.0702 41.1196 34.7989 41.7747C34.5275 42.4299 34.1297 43.0252 33.6283 43.5266C33.1269 44.028 32.5316 44.4258 31.8765 44.6971C31.2213 44.9685 30.5192 45.1082 29.81 45.1082C28.3779 45.1082 27.0044 44.5393 25.9917 43.5266C24.9791 42.5139 24.4102 41.1404 24.4102 39.7083C24.4102 38.2762 24.9791 36.9027 25.9917 35.89C27.0044 34.8773 28.3779 34.3084 29.81 34.3084C30.5192 34.3084 31.2213 34.4481 31.8765 34.7195C32.5316 34.9908 33.1269 35.3886 33.6283 35.89C34.1297 36.3914 34.5275 36.9867 34.7989 37.6418C35.0702 38.297 35.2099 38.9992 35.2099 39.7083Z" fill="#00897B"/>
<path d="M36.2324 34.1379C36.2324 34.847 36.0927 35.5492 35.8213 36.2044C35.55 36.8595 35.1522 37.4548 34.6508 37.9562C34.1494 38.4576 33.5541 38.8554 32.8989 39.1267C32.2438 39.3981 31.5416 39.5378 30.8325 39.5378C30.1234 39.5378 29.4212 39.3981 28.7661 39.1267C28.1109 38.8554 27.5156 38.4576 27.0142 37.9562C26.5128 37.4548 26.115 36.8595 25.8437 36.2044C25.5723 35.5492 25.4326 34.847 25.4326 34.1379C25.4326 32.7058 26.0015 31.3323 27.0142 30.3196C28.0269 29.307 29.4004 28.738 30.8325 28.738C32.2646 28.738 33.6381 29.307 34.6508 30.3196C35.6635 31.3323 36.2324 32.7058 36.2324 34.1379Z" fill="#00897B"/>
<path d="M41.6894 32.0916C41.6894 33.5238 41.1205 34.8973 40.1078 35.9099C39.0951 36.9226 37.7217 37.4915 36.2895 37.4915C35.5804 37.4915 34.8782 37.3519 34.2231 37.0805C33.5679 36.8091 32.9727 36.4114 32.4712 35.9099C31.9698 35.4085 31.5721 34.8132 31.3007 34.1581C31.0293 33.5029 30.8896 32.8008 30.8896 32.0916C30.8896 31.3825 31.0293 30.6803 31.3007 30.0252C31.5721 29.3701 31.9698 28.7748 32.4712 28.2734C32.9727 27.7719 33.5679 27.3742 34.2231 27.1028C34.8782 26.8314 35.5804 26.6918 36.2895 26.6918C37.7217 26.6918 39.0951 27.2607 40.1078 28.2734C41.1205 29.286 41.6894 30.6595 41.6894 32.0916Z" fill="#00897B"/>
<path d="M39.1894 27.4307C39.1894 28.8628 38.6205 30.2363 37.6078 31.249C36.5951 32.2617 35.2217 32.8306 33.7895 32.8306C33.0804 32.8306 32.3782 32.6909 31.7231 32.4195C31.0679 32.1482 30.4727 31.7504 29.9712 31.249C29.4698 30.7476 29.0721 30.1523 28.8007 29.4971C28.5293 28.842 28.3896 28.1398 28.3896 27.4307C28.3896 26.7216 28.5293 26.0194 28.8007 25.3643C29.0721 24.7091 29.4698 24.1138 29.9712 23.6124C30.4727 23.111 31.0679 22.7132 31.7231 22.4419C32.3782 22.1705 33.0804 22.0308 33.7895 22.0308C35.2217 22.0308 36.5951 22.5997 37.6078 23.6124C38.6205 24.6251 39.1894 25.9986 39.1894 27.4307Z" fill="#00897B"/>
<path d="M44.7587 23.2244C44.7587 24.6565 44.1898 26.03 43.1771 27.0427C42.1645 28.0554 40.791 28.6243 39.3589 28.6243C37.9267 28.6243 36.5532 28.0554 35.5406 27.0427C34.5279 26.03 33.959 24.6565 33.959 23.2244C33.959 22.5153 34.0987 21.8131 34.37 21.158C34.6414 20.5028 35.0391 19.9075 35.5406 19.4061C36.042 18.9047 36.6373 18.5069 37.2924 18.2356C37.9476 17.9642 38.6497 17.8245 39.3589 17.8245C40.068 17.8245 40.7702 17.9642 41.4253 18.2356C42.0804 18.5069 42.6757 18.9047 43.1771 19.4061C43.6786 19.9075 44.0763 20.5028 44.3477 21.158C44.6191 21.8131 44.7587 22.5153 44.7587 23.2244Z" fill="#00897B"/>
<path d="M32.0273 24.3613C32.0273 25.0704 31.8876 25.7726 31.6162 26.4278C31.3449 27.0829 30.9471 27.6782 30.4457 28.1796C29.9443 28.681 29.349 29.0788 28.6939 29.3501C28.0387 29.6215 27.3365 29.7612 26.6274 29.7612C25.9183 29.7612 25.2161 29.6215 24.561 29.3501C23.9058 29.0788 23.3106 28.681 22.8091 28.1796C22.3077 27.6782 21.91 27.0829 21.6386 26.4278C21.3672 25.7726 21.2275 25.0704 21.2275 24.3613C21.2275 23.6522 21.3672 22.95 21.6386 22.2949C21.91 21.6397 22.3077 21.0444 22.8091 20.543C23.3106 20.0416 23.9058 19.6438 24.561 19.3725C25.2161 19.1011 25.9183 18.9614 26.6274 18.9614C27.3365 18.9614 28.0387 19.1011 28.6939 19.3725C29.349 19.6438 29.9443 20.0416 30.4457 20.543C30.9471 21.0444 31.3449 21.6397 31.6162 22.2949C31.8876 22.95 32.0273 23.6522 32.0273 24.3613Z" fill="#00897B"/>
<path d="M25.206 25.3844C25.206 26.8166 24.6371 28.19 23.6244 29.2027C22.6117 30.2154 21.2383 30.7843 19.8061 30.7843C18.374 30.7843 17.0005 30.2154 15.9878 29.2027C14.9752 28.19 14.4063 26.8166 14.4063 25.3844C14.4062 24.6753 14.5459 23.9731 14.8173 23.318C15.0887 22.6628 15.4864 22.0676 15.9878 21.5661C16.4893 21.0647 17.0845 20.667 17.7397 20.3956C18.3948 20.1242 19.097 19.9846 19.8061 19.9846C20.5152 19.9846 21.2174 20.1242 21.8726 20.3956C22.5277 20.667 23.123 21.0647 23.6244 21.5661C24.1258 22.0676 24.5236 22.6628 24.795 23.318C25.0663 23.9731 25.206 24.6753 25.206 25.3844Z" fill="#00897B"/>
<path d="M24.7519 18.2225C24.7519 19.6546 24.183 21.0281 23.1703 22.0408C22.1576 23.0535 20.7842 23.6224 19.352 23.6224C17.9199 23.6224 16.5464 23.0535 15.5337 22.0408C14.5211 21.0281 13.9521 19.6546 13.9521 18.2225C13.9521 17.5134 14.0918 16.8112 14.3632 16.1561C14.6346 15.5009 15.0323 14.9057 15.5337 14.4042C16.0352 13.9028 16.6304 13.5051 17.2856 13.2337C17.9407 12.9623 18.6429 12.8226 19.352 12.8226C20.0611 12.8226 20.7633 12.9623 21.4185 13.2337C22.0736 13.5051 22.6689 13.9028 23.1703 14.4042C23.6717 14.9057 24.0695 15.5009 24.3409 16.1561C24.6122 16.8112 24.7519 17.5134 24.7519 18.2225Z" fill="#00897B"/>
<path d="M28.3896 11.8563C28.3896 12.5655 28.2499 13.2677 27.9786 13.9228C27.7072 14.5779 27.3094 15.1732 26.808 15.6746C26.3066 16.1761 25.7113 16.5738 25.0562 16.8452C24.401 17.1166 23.6988 17.2562 22.9897 17.2562C22.2806 17.2562 21.5784 17.1166 20.9233 16.8452C20.2681 16.5738 19.6729 16.1761 19.1714 15.6746C18.67 15.1732 18.2723 14.5779 18.0009 13.9228C17.7295 13.2677 17.5898 12.5655 17.5898 11.8563C17.5898 10.4242 18.1588 9.05074 19.1714 8.03807C20.1841 7.0254 21.5576 6.45648 22.9897 6.45648C24.4219 6.45648 25.7953 7.0254 26.808 8.03807C27.8207 9.05074 28.3896 10.4242 28.3896 11.8563Z" fill="#00897B"/>
<path d="M34.1874 16.6309C34.1874 17.3401 34.0478 18.0422 33.7764 18.6974C33.505 19.3525 33.1073 19.9478 32.6059 20.4492C32.1044 20.9507 31.5092 21.3484 30.854 21.6198C30.1989 21.8912 29.4967 22.0308 28.7876 22.0308C28.0784 22.0308 27.3763 21.8912 26.7211 21.6198C26.066 21.3484 25.4707 20.9507 24.9693 20.4492C24.4679 19.9478 24.0701 19.3525 23.7987 18.6974C23.5274 18.0422 23.3877 17.3401 23.3877 16.6309C23.3877 15.1988 23.9566 13.8253 24.9693 12.8127C25.982 11.8 27.3554 11.2311 28.7876 11.2311C30.2197 11.2311 31.5932 11.8 32.6059 12.8127C33.6185 13.8253 34.1874 15.1988 34.1874 16.6309Z" fill="#00897B"/>
<path d="M38.621 18.5636C38.621 19.2727 38.4814 19.9749 38.21 20.63C37.9386 21.2852 37.5409 21.8804 37.0395 22.3819C36.538 22.8833 35.9428 23.281 35.2876 23.5524C34.6325 23.8238 33.9303 23.9635 33.2212 23.9635C32.512 23.9635 31.8099 23.8238 31.1547 23.5524C30.4996 23.281 29.9043 22.8833 29.4029 22.3819C28.9015 21.8804 28.5037 21.2852 28.2323 20.63C27.961 19.9749 27.8213 19.2727 27.8213 18.5636C27.8213 17.1314 28.3902 15.758 29.4029 14.7453C30.4156 13.7326 31.789 13.1637 33.2212 13.1637C34.6533 13.1637 36.0268 13.7326 37.0395 14.7453C38.0521 15.758 38.621 17.1314 38.621 18.5636Z" fill="#00897B"/>
<path d="M46.3505 15.7215C46.3505 17.1536 45.7816 18.5271 44.7689 19.5398C43.7563 20.5524 42.3828 21.1214 40.9507 21.1214C39.5185 21.1214 38.145 20.5524 37.1324 19.5398C36.1197 18.5271 35.5508 17.1536 35.5508 15.7215C35.5508 15.0124 35.6904 14.3102 35.9618 13.655C36.2332 12.9999 36.6309 12.4046 37.1324 11.9032C37.6338 11.4018 38.2291 11.004 38.8842 10.7326C39.5394 10.4613 40.2415 10.3216 40.9507 10.3216C41.6598 10.3216 42.362 10.4613 43.0171 10.7326C43.6722 11.004 44.2675 11.4018 44.7689 11.9032C45.2704 12.4046 45.6681 12.9999 45.9395 13.655C46.2109 14.3102 46.3505 15.0124 46.3505 15.7215Z" fill="#00897B"/>
<path d="M51.58 55.579C51.58 56.2881 51.4404 56.9902 51.169 57.6454C50.8976 58.3005 50.4999 58.8958 49.9984 59.3972C49.497 59.8987 48.9017 60.2964 48.2466 60.5678C47.5914 60.8392 46.8893 60.9788 46.1802 60.9788C45.471 60.9788 44.7689 60.8392 44.1137 60.5678C43.4586 60.2964 42.8633 59.8987 42.3619 59.3972C41.8604 58.8958 41.4627 58.3005 41.1913 57.6454C40.9199 56.9902 40.7803 56.2881 40.7803 55.579C40.7803 54.8698 40.9199 54.1677 41.1913 53.5125C41.4627 52.8574 41.8604 52.2621 42.3619 51.7607C42.8633 51.2592 43.4586 50.8615 44.1137 50.5901C44.7689 50.3187 45.471 50.1791 46.1802 50.1791C46.8893 50.1791 47.5914 50.3187 48.2466 50.5901C48.9017 50.8615 49.497 51.2592 49.9984 51.7607C50.4999 52.2621 50.8976 52.8574 51.169 53.5125C51.4404 54.1677 51.58 54.8698 51.58 55.579Z" fill="#00897B"/>
<path d="M46.124 51.8722C46.124 52.5814 45.9843 53.2835 45.7129 53.9387C45.4416 54.5938 45.0438 55.1891 44.5424 55.6905C44.041 56.1919 43.4457 56.5897 42.7905 56.8611C42.1354 57.1324 41.4332 57.2721 40.7241 57.2721C40.015 57.2721 39.3128 57.1324 38.6577 56.8611C38.0025 56.5897 37.4072 56.1919 36.9058 55.6905C36.4044 55.1891 36.0066 54.5938 35.7353 53.9387C35.4639 53.2835 35.3242 52.5814 35.3242 51.8722C35.3242 51.1631 35.4639 50.4609 35.7353 49.8058C36.0066 49.1506 36.4044 48.5554 36.9058 48.0539C37.4072 47.5525 38.0025 47.1548 38.6577 46.8834C39.3128 46.612 40.015 46.4724 40.7241 46.4724C41.4332 46.4724 42.1354 46.612 42.7905 46.8834C43.4457 47.1548 44.041 47.5525 44.5424 48.0539C45.0438 48.5554 45.4416 49.1506 45.7129 49.8058C45.9843 50.4609 46.124 51.1631 46.124 51.8722Z" fill="#00897B"/>
<path d="M50.6708 45.7334C50.6708 46.4426 50.5312 47.1447 50.2598 47.7999C49.9884 48.455 49.5907 49.0503 49.0893 49.5517C48.5878 50.0532 47.9926 50.4509 47.3374 50.7223C46.6823 50.9936 45.9801 51.1333 45.271 51.1333C44.5618 51.1333 43.8597 50.9936 43.2045 50.7223C42.5494 50.4509 41.9541 50.0532 41.4527 49.5517C40.9513 49.0503 40.5535 48.455 40.2821 47.7999C40.0108 47.1447 39.8711 46.4426 39.8711 45.7334C39.8711 45.0243 40.0108 44.3221 40.2821 43.667C40.5535 43.0118 40.9513 42.4166 41.4527 41.9151C41.9541 41.4137 42.5494 41.016 43.2045 40.7446C43.8597 40.4732 44.5618 40.3336 45.271 40.3336C45.9801 40.3336 46.6823 40.4732 47.3374 40.7446C47.9926 41.016 48.5878 41.4137 49.0893 41.9151C49.5907 42.4166 49.9884 43.0118 50.2598 43.667C50.5312 44.3221 50.6708 45.0243 50.6708 45.7334Z" fill="#00897B"/>
<path d="M44.3046 38.4579C44.3046 39.167 44.165 39.8692 43.8936 40.5243C43.6222 41.1795 43.2245 41.7747 42.723 42.2762C42.2216 42.7776 41.6263 43.1753 40.9712 43.4467C40.3161 43.7181 39.6139 43.8577 38.9048 43.8577C38.1956 43.8577 37.4935 43.7181 36.8383 43.4467C36.1832 43.1753 35.5879 42.7776 35.0865 42.2762C34.585 41.7747 34.1873 41.1795 33.9159 40.5243C33.6446 39.8692 33.5049 39.167 33.5049 38.4579C33.5049 37.7487 33.6446 37.0466 33.9159 36.3914C34.1873 35.7363 34.585 35.141 35.0865 34.6396C35.5879 34.1381 36.1832 33.7404 36.8383 33.469C37.4935 33.1977 38.1956 33.058 38.9048 33.058C39.6139 33.058 40.3161 33.1977 40.9712 33.469C41.6263 33.7404 42.2216 34.1381 42.723 34.6396C43.2245 35.141 43.6222 35.7363 43.8936 36.3914C44.165 37.0466 44.3046 37.7487 44.3046 38.4579Z" fill="#00897B"/>
<path d="M52.6035 40.7314C52.6035 41.4405 52.4638 42.1427 52.1924 42.7978C51.9211 43.453 51.5233 44.0482 51.0219 44.5497C50.5205 45.0511 49.9252 45.4488 49.27 45.7202C48.6149 45.9916 47.9127 46.1312 47.2036 46.1312C46.4945 46.1312 45.7923 45.9916 45.1371 45.7202C44.482 45.4488 43.8867 45.0511 43.3853 44.5497C42.8839 44.0482 42.4861 43.453 42.2148 42.7978C41.9434 42.1427 41.8037 41.4405 41.8037 40.7314C41.8037 40.0222 41.9434 39.3201 42.2148 38.6649C42.4861 38.0098 42.8839 37.4145 43.3853 36.9131C43.8867 36.4117 44.482 36.0139 45.1371 35.7425C45.7923 35.4712 46.4945 35.3315 47.2036 35.3315C47.9127 35.3315 48.6149 35.4712 49.27 35.7425C49.9252 36.0139 50.5205 36.4117 51.0219 36.9131C51.5233 37.4145 51.9211 38.0098 52.1924 38.6649C52.4638 39.3201 52.6035 40.0222 52.6035 40.7314Z" fill="#00897B"/>
<path d="M50.1025 36.0705C50.1025 36.7796 49.9628 37.4818 49.6915 38.1369C49.4201 38.7921 49.0223 39.3873 48.5209 39.8888C48.0195 40.3902 47.4242 40.7879 46.7691 41.0593C46.1139 41.3307 45.4117 41.4704 44.7026 41.4704C43.9935 41.4704 43.2913 41.3307 42.6362 41.0593C41.981 40.7879 41.3858 40.3902 40.8843 39.8888C40.3829 39.3873 39.9851 38.7921 39.7138 38.1369C39.4424 37.4818 39.3027 36.7796 39.3027 36.0705C39.3027 35.3614 39.4424 34.6592 39.7138 34.004C39.9851 33.3489 40.3829 32.7536 40.8843 32.2522C41.3858 31.7508 41.981 31.353 42.6362 31.0816C43.2913 30.8103 43.9935 30.6706 44.7026 30.6706C45.4117 30.6706 46.1139 30.8103 46.7691 31.0816C47.4242 31.353 48.0195 31.7508 48.5209 32.2522C49.0223 32.7536 49.4201 33.3489 49.6915 34.004C49.9628 34.6592 50.1025 35.3614 50.1025 36.0705Z" fill="#00695C"/>
<path d="M55.6718 31.8642C55.6718 33.2963 55.1029 34.6698 54.0902 35.6825C53.0776 36.6951 51.7041 37.264 50.2719 37.264C49.5628 37.264 48.8606 37.1244 48.2055 36.853C47.5504 36.5816 46.9551 36.1839 46.4537 35.6825C45.9522 35.181 45.5545 34.5858 45.2831 33.9306C45.0117 33.2755 44.8721 32.5733 44.8721 31.8642C44.8721 31.1551 45.0117 30.4529 45.2831 29.7977C45.5545 29.1426 45.9522 28.5473 46.4537 28.0459C46.9551 27.5445 47.5504 27.1467 48.2055 26.8753C48.8606 26.604 49.5628 26.4643 50.2719 26.4643C51.7041 26.4643 53.0776 27.0332 54.0902 28.0459C55.1029 29.0586 55.6718 30.432 55.6718 31.8642Z" fill="#00897B"/>
<path d="M49.5341 27.2033C49.5341 27.9124 49.3945 28.6146 49.1231 29.2697C48.8517 29.9249 48.454 30.5201 47.9525 31.0216C47.4511 31.523 46.8558 31.9207 46.2007 32.1921C45.5456 32.4635 44.8434 32.6032 44.1342 32.6032C43.4251 32.6032 42.7229 32.4635 42.0678 32.1921C41.4127 31.9207 40.8174 31.523 40.316 31.0216C39.8145 30.5201 39.4168 29.9249 39.1454 29.2697C38.874 28.6146 38.7344 27.9124 38.7344 27.2033C38.7344 25.7711 39.3033 24.3977 40.316 23.385C41.3286 22.3723 42.7021 21.8034 44.1342 21.8034C45.5664 21.8034 46.9399 22.3723 47.9525 23.385C48.9652 24.3977 49.5341 25.7711 49.5341 27.2033Z" fill="#00897B"/>
<path d="M57.2646 24.3612C57.2646 25.0704 57.1249 25.7725 56.8536 26.4277C56.5822 27.0828 56.1844 27.6781 55.683 28.1795C55.1816 28.681 54.5863 29.0787 53.9312 29.3501C53.276 29.6214 52.5738 29.7611 51.8647 29.7611C50.4326 29.7611 49.0591 29.1922 48.0464 28.1795C47.0338 27.1669 46.4648 25.7934 46.4648 24.3612C46.4648 22.9291 47.0338 21.5556 48.0464 20.543C49.0591 19.5303 50.4326 18.9614 51.8647 18.9614C52.5738 18.9614 53.276 19.101 53.9312 19.3724C54.5863 19.6438 55.1816 20.0415 55.683 20.543C56.1844 21.0444 56.5822 21.6397 56.8536 22.2948C57.1249 22.9499 57.2646 23.6521 57.2646 24.3612Z" fill="#00897B"/>
<path d="M61.0166 48.0071C61.0165 49.4392 60.4476 50.8127 59.435 51.8254C58.4223 52.838 57.0488 53.4069 55.6167 53.4069C54.1845 53.4069 52.8111 52.838 51.7984 51.8254C50.7857 50.8127 50.2168 49.4392 50.2168 48.0071C50.2168 47.2979 50.3565 46.5958 50.6278 45.9406C50.8992 45.2855 51.297 44.6902 51.7984 44.1888C52.2998 43.6873 52.8951 43.2896 53.5502 43.0182C54.2054 42.7469 54.9076 42.6072 55.6167 42.6072C56.3258 42.6072 57.028 42.7469 57.6831 43.0182C58.3383 43.2896 58.9335 43.6873 59.435 44.1888C59.9364 44.6902 60.3341 45.2855 60.6055 45.9406C60.8769 46.5958 61.0166 47.2979 61.0166 48.0071Z" fill="#00897B"/>
<path d="M58.5146 43.346C58.5146 44.0552 58.3749 44.7573 58.1036 45.4125C57.8322 46.0676 57.4344 46.6629 56.933 47.1643C56.4316 47.6658 55.8363 48.0635 55.1812 48.3349C54.526 48.6062 53.8238 48.7459 53.1147 48.7459C52.4056 48.7459 51.7034 48.6062 51.0483 48.3349C50.3931 48.0635 49.7979 47.6658 49.2964 47.1643C48.795 46.6629 48.3973 46.0676 48.1259 45.4125C47.8545 44.7573 47.7148 44.0552 47.7148 43.346C47.7148 42.6369 47.8545 41.9347 48.1259 41.2796C48.3973 40.6245 48.795 40.0292 49.2964 39.5278C49.7979 39.0263 50.3931 38.6286 51.0483 38.3572C51.7034 38.0858 52.4056 37.9462 53.1147 37.9462C53.8238 37.9462 54.526 38.0858 55.1812 38.3572C55.8363 38.6286 56.4316 39.0263 56.933 39.5278C57.4344 40.0292 57.8322 40.6245 58.1036 41.2796C58.3749 41.9347 58.5146 42.6369 58.5146 43.346Z" fill="#00897B"/>
<path d="M64.0849 39.1399C64.0849 39.849 63.9452 40.5512 63.6739 41.2063C63.4025 41.8614 63.0047 42.4567 62.5033 42.9582C62.0019 43.4596 61.4066 43.8573 60.7515 44.1287C60.0963 44.4001 59.3942 44.5397 58.685 44.5397C57.9759 44.5397 57.2737 44.4001 56.6186 44.1287C55.9634 43.8573 55.3682 43.4596 54.8667 42.9582C54.3653 42.4567 53.9676 41.8614 53.6962 41.2063C53.4248 40.5512 53.2852 39.849 53.2852 39.1399C53.2852 38.4307 53.4248 37.7286 53.6962 37.0734C53.9676 36.4183 54.3653 35.823 54.8667 35.3216C55.3682 34.8202 55.9634 34.4224 56.6186 34.151C57.2737 33.8797 57.9759 33.74 58.685 33.74C59.3942 33.74 60.0963 33.8797 60.7515 34.151C61.4066 34.4224 62.0019 34.8202 62.5033 35.3216C63.0047 35.823 63.4025 36.4183 63.6739 37.0734C63.9452 37.7286 64.0849 38.4307 64.0849 39.1399Z" fill="#00897B"/>
<path d="M57.9462 34.4789C57.9462 35.188 57.8066 35.8902 57.5352 36.5454C57.2638 37.2005 56.8661 37.7958 56.3646 38.2972C55.8632 38.7986 55.2679 39.1964 54.6128 39.4678C53.9577 39.7391 53.2555 39.8788 52.5464 39.8788C51.8372 39.8788 51.1351 39.7391 50.4799 39.4678C49.8248 39.1964 49.2295 38.7986 48.7281 38.2972C48.2266 37.7958 47.8289 37.2005 47.5575 36.5454C47.2862 35.8902 47.1465 35.188 47.1465 34.4789C47.1465 33.7698 47.2862 33.0676 47.5575 32.4125C47.8289 31.7573 48.2266 31.1621 48.7281 30.6606C49.2295 30.1592 49.8248 29.7614 50.4799 29.4901C51.1351 29.2187 51.8372 29.079 52.5464 29.079C53.2555 29.079 53.9577 29.2187 54.6128 29.4901C55.2679 29.7614 55.8632 30.1592 56.3647 30.6606C56.8661 31.1621 57.2638 31.7573 57.5352 32.4125C57.8066 33.0676 57.9462 33.7698 57.9462 34.4789Z" fill="#00897B"/>
<path d="M65.6777 31.6369C65.6777 33.069 65.1088 34.4425 64.0961 35.4552C63.0834 36.4678 61.7099 37.0368 60.2778 37.0368C59.5687 37.0368 58.8665 36.8971 58.2114 36.6257C57.5562 36.3543 56.9609 35.9566 56.4595 35.4552C55.9581 34.9537 55.5603 34.3585 55.289 33.7033C55.0176 33.0482 54.8779 32.346 54.8779 31.6369C54.8779 30.9278 55.0176 30.2256 55.289 29.5704C55.5603 28.9153 55.9581 28.32 56.4595 27.8186C56.9609 27.3172 57.5562 26.9194 58.2114 26.648C58.8665 26.3767 59.5687 26.237 60.2778 26.237C61.7099 26.237 63.0834 26.8059 64.0961 27.8186C65.1088 28.8313 65.6777 30.2047 65.6777 31.6369Z" fill="#00897B"/>
<path d="M68.0644 33.4558C68.0644 34.165 67.9247 34.8671 67.6534 35.5223C67.382 36.1774 66.9842 36.7727 66.4828 37.2741C65.9814 37.7756 65.3861 38.1733 64.731 38.4447C64.0758 38.716 63.3736 38.8557 62.6645 38.8557C61.9554 38.8557 61.2532 38.716 60.5981 38.4447C59.9429 38.1733 59.3477 37.7756 58.8462 37.2741C58.3448 36.7727 57.9471 36.1774 57.6757 35.5223C57.4043 34.8671 57.2646 34.165 57.2646 33.4558C57.2646 32.7467 57.4043 32.0445 57.6757 31.3894C57.9471 30.7343 58.3448 30.139 58.8462 29.6376C59.3477 29.1361 59.9429 28.7384 60.5981 28.467C61.2532 28.1956 61.9554 28.056 62.6645 28.056C63.3736 28.056 64.0758 28.1956 64.731 28.467C65.3861 28.7384 65.9814 29.1361 66.4828 29.6376C66.9842 30.139 67.382 30.7343 67.6534 31.3894C67.9247 32.0445 68.0644 32.7467 68.0644 33.4558Z" fill="#00897B"/>
<path d="M65.5634 28.7949C65.5634 30.227 64.9945 31.6005 63.9818 32.6132C62.9692 33.6259 61.5957 34.1948 60.1635 34.1948C58.7314 34.1948 57.3579 33.6259 56.3453 32.6132C55.3326 31.6005 54.7637 30.227 54.7637 28.7949C54.7637 28.0858 54.9033 27.3836 55.1747 26.7285C55.4461 26.0733 55.8438 25.478 56.3453 24.9766C56.8467 24.4752 57.442 24.0774 58.0971 23.8061C58.7522 23.5347 59.4544 23.395 60.1635 23.395C60.8727 23.395 61.5748 23.5347 62.23 23.8061C62.8851 24.0774 63.4804 24.4752 63.9818 24.9766C64.4833 25.478 64.881 26.0733 65.1524 26.7285C65.4238 27.3836 65.5634 28.0858 65.5634 28.7949Z" fill="#004D40"/>
<path d="M71.1337 24.5886C71.1337 25.2977 70.9941 25.9999 70.7227 26.655C70.4513 27.3102 70.0536 27.9055 69.5522 28.4069C69.0507 28.9083 68.4554 29.3061 67.8003 29.5774C67.1452 29.8488 66.443 29.9885 65.7339 29.9885C65.0247 29.9885 64.3226 29.8488 63.6674 29.5774C63.0123 29.3061 62.417 28.9083 61.9156 28.4069C61.4141 27.9055 61.0164 27.3102 60.745 26.655C60.4737 25.9999 60.334 25.2977 60.334 24.5886C60.334 23.8795 60.4737 23.1773 60.745 22.5222C61.0164 21.867 61.4141 21.2717 61.9156 20.7703C62.417 20.2689 63.0123 19.8711 63.6674 19.5998C64.3226 19.3284 65.0247 19.1887 65.7339 19.1887C66.443 19.1887 67.1452 19.3284 67.8003 19.5998C68.4554 19.8711 69.0507 20.2689 69.5522 20.7703C70.0536 21.2717 70.4513 21.867 70.7227 22.5222C70.9941 23.1773 71.1337 23.8795 71.1337 24.5886Z" fill="#00897B"/>
<path d="M64.9941 19.9277C64.9941 20.6368 64.8544 21.339 64.5831 21.9941C64.3117 22.6492 63.9139 23.2445 63.4125 23.7459C62.9111 24.2474 62.3158 24.6451 61.6607 24.9165C61.0055 25.1879 60.3033 25.3275 59.5942 25.3275C58.8851 25.3275 58.1829 25.1879 57.5278 24.9165C56.8726 24.6451 56.2774 24.2474 55.7759 23.7459C55.2745 23.2445 54.8767 22.6492 54.6054 21.9941C54.334 21.339 54.1943 20.6368 54.1943 19.9277C54.1943 19.2185 54.334 18.5163 54.6054 17.8612C54.8767 17.2061 55.2745 16.6108 55.7759 16.1094C56.2773 15.6079 56.8726 15.2102 57.5278 14.9388C58.1829 14.6674 58.8851 14.5278 59.5942 14.5278C60.3033 14.5278 61.0055 14.6674 61.6607 14.9388C62.3158 15.2102 62.9111 15.6079 63.4125 16.1094C63.9139 16.6108 64.3117 17.2061 64.5831 17.8612C64.8544 18.5163 64.9941 19.2185 64.9941 19.9277Z" fill="#00897B"/>
<path d="M77.7275 19.5866C77.7275 21.0188 77.1586 22.3923 76.1459 23.4049C75.1332 24.4176 73.7598 24.9865 72.3276 24.9865C70.8955 24.9865 69.522 24.4176 68.5093 23.4049C67.4967 22.3923 66.9277 21.0188 66.9277 19.5866C66.9277 18.8775 67.0674 18.1753 67.3388 17.5202C67.6101 16.8651 68.0079 16.2698 68.5093 15.7684C69.0108 15.2669 69.606 14.8692 70.2612 14.5978C70.9163 14.3264 71.6185 14.1868 72.3276 14.1868C73.0367 14.1868 73.7389 14.3264 74.3941 14.5978C75.0492 14.8692 75.6445 15.2669 76.1459 15.7684C76.6473 16.2698 77.0451 16.8651 77.3164 17.5202C77.5878 18.1753 77.7275 18.8775 77.7275 19.5866Z" fill="#004D40"/>
<path d="M72.7255 17.0856C72.7255 17.7947 72.5859 18.4969 72.3145 19.152C72.0431 19.8072 71.6454 20.4025 71.144 20.9039C70.6425 21.4053 70.0472 21.8031 69.3921 22.0744C68.737 22.3458 68.0348 22.4855 67.3257 22.4855C66.6165 22.4855 65.9144 22.3458 65.2592 22.0744C64.6041 21.8031 64.0088 21.4053 63.5074 20.9039C63.0059 20.4025 62.6082 19.8072 62.3368 19.152C62.0655 18.4969 61.9258 17.7947 61.9258 17.0856C61.9258 15.6535 62.4947 14.28 63.5074 13.2673C64.52 12.2546 65.8935 11.6857 67.3257 11.6857C68.7578 11.6857 70.1313 12.2546 71.144 13.2673C72.1566 14.28 72.7255 15.6535 72.7255 17.0856Z" fill="#00897B"/>
<path d="M51.3535 18.9046C51.3535 20.3367 50.7846 21.7102 49.7719 22.7229C48.7592 23.7355 47.3857 24.3044 45.9536 24.3044C44.5215 24.3044 43.148 23.7355 42.1353 22.7229C41.1226 21.7102 40.5537 20.3367 40.5537 18.9046C40.5537 18.1955 40.6934 17.4933 40.9648 16.8381C41.2361 16.183 41.6339 15.5877 42.1353 15.0863C42.6367 14.5849 43.232 14.1871 43.8871 13.9157C44.5423 13.6444 45.2445 13.5047 45.9536 13.5047C46.6627 13.5047 47.3649 13.6444 48.02 13.9157C48.6752 14.1871 49.2705 14.5849 49.7719 15.0863C50.2733 15.5877 50.6711 16.183 50.9424 16.8381C51.2138 17.4933 51.3535 18.1955 51.3535 18.9046Z" fill="#00897B"/>
<path d="M59.3095 14.812C59.3095 16.2442 58.7406 17.6177 57.7279 18.6303C56.7153 19.643 55.3418 20.2119 53.9096 20.2119C52.4775 20.2119 51.104 19.643 50.0914 18.6303C49.0787 17.6177 48.5098 16.2442 48.5098 14.812C48.5098 14.1029 48.6494 13.4007 48.9208 12.7456C49.1922 12.0905 49.5899 11.4952 50.0914 10.9938C50.5928 10.4923 51.1881 10.0946 51.8432 9.82321C52.4983 9.55184 53.2005 9.41217 53.9096 9.41217C54.6188 9.41217 55.3209 9.55184 55.9761 9.82321C56.6312 10.0946 57.2265 10.4923 57.7279 10.9938C58.2294 11.4952 58.6271 12.0905 58.8985 12.7456C59.1699 13.4007 59.3095 14.1029 59.3095 14.812Z" fill="#00897B"/>
<path d="M67.041 11.6289C67.041 12.3381 66.9013 13.0402 66.6299 13.6954C66.3586 14.3505 65.9608 14.9458 65.4594 15.4472C64.9579 15.9487 64.3627 16.3464 63.7075 16.6178C63.0524 16.8891 62.3502 17.0288 61.6411 17.0288C60.932 17.0288 60.2298 16.8892 59.5746 16.6178C58.9195 16.3464 58.3242 15.9487 57.8228 15.4472C57.3214 14.9458 56.9236 14.3505 56.6522 13.6954C56.3809 13.0402 56.2412 12.3381 56.2412 11.6289C56.2412 10.1968 56.8101 8.82332 57.8228 7.81065C58.8355 6.79798 60.2089 6.22906 61.6411 6.22906C63.0732 6.22907 64.4467 6.79798 65.4594 7.81065C66.472 8.82332 67.041 10.1968 67.041 11.6289Z" fill="#00897B"/>
<path d="M61.1289 7.08169C61.1289 7.79081 60.9892 8.49299 60.7178 9.14814C60.4464 9.80328 60.0487 10.3986 59.5473 10.9C59.0458 11.4014 58.4506 11.7992 57.7954 12.0705C57.1403 12.3419 56.4381 12.4816 55.729 12.4816C55.0199 12.4816 54.3177 12.3419 53.6625 12.0705C53.0074 11.7992 52.4121 11.4014 51.9107 10.9C51.4093 10.3986 51.0115 9.80328 50.7401 9.14814C50.4688 8.49299 50.3291 7.79081 50.3291 7.08169C50.3291 5.64956 50.898 4.27608 51.9107 3.26341C52.9234 2.25074 54.2968 1.68182 55.729 1.68182C57.1611 1.68182 58.5346 2.25074 59.5473 3.26341C60.5599 4.27608 61.1289 5.64956 61.1289 7.08169Z" fill="#00897B"/>
<path d="M74.999 8.67318C74.999 9.38231 74.8593 10.0845 74.5879 10.7396C74.3166 11.3948 73.9188 11.9901 73.4174 12.4915C72.916 12.9929 72.3207 13.3907 71.6655 13.662C71.0104 13.9334 70.3082 14.0731 69.5991 14.0731C68.89 14.0731 68.1878 13.9334 67.5326 13.662C66.8775 13.3907 66.2822 12.9929 65.7808 12.4915C65.2794 11.9901 64.8816 11.3948 64.6103 10.7396C64.3389 10.0845 64.1992 9.38231 64.1992 8.67318C64.1992 7.96406 64.3389 7.26189 64.6103 6.60675C64.8816 5.95161 65.2794 5.35633 65.7808 4.8549C66.2822 4.35348 66.8775 3.95572 67.5326 3.68435C68.1878 3.41298 68.89 3.27332 69.5991 3.27332C71.0312 3.27332 72.4047 3.84223 73.4174 4.8549C74.4301 5.86757 74.999 7.24105 74.999 8.67318Z" fill="#00897B"/>
<path d="M41.3496 10.0374C41.3496 10.7466 41.2099 11.4487 40.9385 12.1039C40.6671 12.759 40.2694 13.3543 39.768 13.8557C39.2665 14.3572 38.6713 14.7549 38.0161 15.0263C37.361 15.2977 36.6588 15.4373 35.9497 15.4373C34.5175 15.4373 33.1441 14.8684 32.1314 13.8557C31.1187 12.8431 30.5498 11.4696 30.5498 10.0374C30.5498 8.60531 31.1187 7.23183 32.1314 6.21916C33.1441 5.20649 34.5175 4.63757 35.9497 4.63757C37.3818 4.63757 38.7553 5.20649 39.768 6.21916C40.7806 7.23183 41.3496 8.60531 41.3496 10.0374Z" fill="#00897B"/>
<path d="M31.7998 48.0071C31.7998 49.4392 31.2308 50.8127 30.2182 51.8254C29.2055 52.838 27.832 53.4069 26.3999 53.4069C24.9677 53.4069 23.5943 52.838 22.5816 51.8254C21.5689 50.8127 21 49.4392 21 48.0071C21 47.2979 21.1397 46.5958 21.411 45.9406C21.6824 45.2855 22.0802 44.6902 22.5816 44.1888C23.083 43.6873 23.6783 43.2896 24.3334 43.0182C24.9886 42.7469 25.6908 42.6072 26.3999 42.6072C27.109 42.6072 27.8112 42.7469 28.4663 43.0182C29.1215 43.2896 29.7167 43.6873 30.2182 44.1888C30.7196 44.6902 31.1173 45.2855 31.3887 45.9406C31.6601 46.5958 31.7998 47.2979 31.7998 48.0071Z" fill="#00897B"/>
<path d="M31.1181 33.0011C31.1181 34.4333 30.5492 35.8067 29.5365 36.8194C28.5239 37.8321 27.1504 38.401 25.7182 38.401C25.0091 38.401 24.3069 38.2613 23.6518 37.99C22.9967 37.7186 22.4014 37.3208 21.8999 36.8194C21.3985 36.318 21.0008 35.7227 20.7294 35.0676C20.458 34.4124 20.3184 33.7103 20.3184 33.0011C20.3184 31.569 20.8873 30.1955 21.8999 29.1828C22.9126 28.1702 24.2861 27.6013 25.7182 27.6013C27.1504 27.6013 28.5238 28.1702 29.5365 29.1828C30.5492 30.1955 31.1181 31.569 31.1181 33.0011Z" fill="#004D40"/>
<path d="M30.663 38.2304C30.663 38.9396 30.5234 39.6417 30.252 40.2969C29.9806 40.952 29.5829 41.5473 29.0814 42.0487C28.58 42.5502 27.9847 42.9479 27.3296 43.2193C26.6745 43.4906 25.9723 43.6303 25.2632 43.6303C24.554 43.6303 23.8519 43.4906 23.1967 43.2193C22.5416 42.9479 21.9463 42.5502 21.4449 42.0487C20.9434 41.5473 20.5457 40.952 20.2743 40.2969C20.003 39.6417 19.8633 38.9396 19.8633 38.2304C19.8633 37.5213 20.003 36.8191 20.2743 36.164C20.5457 35.5089 20.9434 34.9136 21.4449 34.4122C21.9463 33.9107 22.5416 33.513 23.1967 33.2416C23.8519 32.9702 24.554 32.8306 25.2632 32.8306C25.9723 32.8306 26.6745 32.9702 27.3296 33.2416C27.9847 33.513 28.58 33.9107 29.0814 34.4122C29.5829 34.9136 29.9806 35.5089 30.252 36.164C30.5234 36.8191 30.663 37.5213 30.663 38.2304Z" fill="#00897B"/>
<path d="M74.999 31.4095C74.999 32.1186 74.8593 32.8208 74.5879 33.476C74.3166 34.1311 73.9188 34.7264 73.4174 35.2278C72.916 35.7292 72.3207 36.127 71.6655 36.3984C71.0104 36.6697 70.3082 36.8094 69.5991 36.8094C68.167 36.8094 66.7935 36.2405 65.7808 35.2278C64.7681 34.2151 64.1992 32.8416 64.1992 31.4095C64.1992 29.9774 64.7681 28.6039 65.7808 27.5912C66.7935 26.5786 68.167 26.0096 69.5991 26.0096C70.3082 26.0096 71.0104 26.1493 71.6655 26.4207C72.3207 26.6921 72.916 27.0898 73.4174 27.5912C73.9188 28.0927 74.3166 28.6879 74.5879 29.3431C74.8593 29.9982 74.999 30.7004 74.999 31.4095Z" fill="#00897B"/>
<path d="M68.8593 39.5946C68.8593 41.0267 68.2904 42.4002 67.2777 43.4129C66.2651 44.4255 64.8916 44.9945 63.4594 44.9945C62.7503 44.9945 62.0481 44.8548 61.393 44.5834C60.7379 44.3121 60.1426 43.9143 59.6412 43.4129C59.1397 42.9115 58.742 42.3162 58.4706 41.661C58.1992 41.0059 58.0596 40.3037 58.0596 39.5946C58.0596 38.8855 58.1992 38.1833 58.4706 37.5281C58.742 36.873 59.1397 36.2777 59.6412 35.7763C60.1426 35.2749 60.7379 34.8771 61.393 34.6058C62.0481 34.3344 62.7503 34.1947 63.4594 34.1947C64.8916 34.1947 66.2651 34.7636 67.2777 35.7763C68.2904 36.789 68.8593 38.1624 68.8593 39.5946Z" fill="#00897B"/>
<path d="M71.4345 58.9694C71.4345 60.4015 70.8656 61.775 69.8529 62.7877C68.8403 63.8004 67.4668 64.3693 66.0346 64.3693C64.6025 64.3693 63.229 63.8004 62.2164 62.7877C61.2037 61.775 60.6348 60.4015 60.6348 58.9694C60.6348 58.2603 60.7744 57.5581 61.0458 56.903C61.3172 56.2478 61.7149 55.6525 62.2164 55.1511C62.7178 54.6497 63.3131 54.2519 63.9682 53.9806C64.6233 53.7092 65.3255 53.5695 66.0346 53.5695C66.7438 53.5695 67.4459 53.7092 68.1011 53.9806C68.7562 54.2519 69.3515 54.6497 69.8529 55.1511C70.3544 55.6525 70.7521 56.2478 71.0235 56.903C71.2949 57.5581 71.4345 58.2603 71.4345 58.9694Z" fill="#00897B"/>
<path d="M75.8554 55.2716C75.8554 55.9808 75.7157 56.6829 75.4444 57.3381C75.173 57.9932 74.7753 58.5885 74.2738 59.0899C73.7724 59.5914 73.1771 59.9891 72.522 60.2605C71.8668 60.5318 71.1647 60.6715 70.4555 60.6715C69.7464 60.6715 69.0442 60.5318 68.3891 60.2605C67.734 59.9891 67.1387 59.5914 66.6373 59.0899C66.1358 58.5885 65.7381 57.9932 65.4667 57.3381C65.1953 56.6829 65.0557 55.9808 65.0557 55.2716C65.0557 54.5625 65.1953 53.8603 65.4667 53.2052C65.7381 52.5501 66.1358 51.9548 66.6373 51.4534C67.1387 50.9519 67.734 50.5542 68.3891 50.2828C69.0442 50.0114 69.7464 49.8718 70.4555 49.8718C71.1647 49.8718 71.8668 50.0114 72.522 50.2828C73.1771 50.5542 73.7724 50.9519 74.2738 51.4534C74.7753 51.9548 75.173 52.5501 75.4444 53.2052C75.7157 53.8603 75.8554 54.5625 75.8554 55.2716Z" fill="#00897B"/>
<path d="M67.3349 53.262C67.3349 53.9711 67.1952 54.6733 66.9239 55.3284C66.6525 55.9836 66.2547 56.5789 65.7533 57.0803C65.2519 57.5817 64.6566 57.9795 64.0015 58.2508C63.3463 58.5222 62.6442 58.6619 61.935 58.6619C61.2259 58.6619 60.5237 58.5222 59.8686 58.2508C59.2134 57.9795 58.6182 57.5817 58.1167 57.0803C57.6153 56.5789 57.2176 55.9836 56.9462 55.3284C56.6748 54.6733 56.5352 53.9711 56.5352 53.262C56.5352 52.5529 56.6748 51.8507 56.9462 51.1956C57.2176 50.5404 57.6153 49.9451 58.1167 49.4437C58.6182 48.9423 59.2134 48.5445 59.8686 48.2732C60.5237 48.0018 61.2259 47.8621 61.935 47.8621C62.6442 47.8621 63.3463 48.0018 64.0015 48.2732C64.6566 48.5445 65.2519 48.9423 65.7533 49.4437C66.2547 49.9451 66.6525 50.5404 66.9239 51.1956C67.1952 51.8507 67.3349 52.5529 67.3349 53.262Z" fill="#00897B"/>
<path d="M73.2831 48.1977C73.2831 48.9068 73.1435 49.609 72.8721 50.2642C72.6007 50.9193 72.203 51.5146 71.7016 52.016C71.2001 52.5174 70.6049 52.9152 69.9497 53.1866C69.2946 53.4579 68.5924 53.5976 67.8833 53.5976C66.4511 53.5976 65.0777 53.0287 64.065 52.016C63.0523 51.0033 62.4834 49.6299 62.4834 48.1977C62.4834 46.7656 63.0523 45.3921 64.065 44.3794C65.0777 43.3668 66.4511 42.7979 67.8833 42.7979C69.3154 42.7979 70.6889 43.3668 71.7016 44.3794C72.7142 45.3921 73.2831 46.7656 73.2831 48.1977Z" fill="#00897B"/>
<path d="M79.5537 47.3136C79.5537 48.0227 79.414 48.7249 79.1426 49.38C78.8713 50.0352 78.4735 50.6304 77.9721 51.1319C77.4707 51.6333 76.8754 52.031 76.2202 52.3024C75.5651 52.5738 74.8629 52.7135 74.1538 52.7135C72.7217 52.7135 71.3482 52.1445 70.3355 51.1319C69.3228 50.1192 68.7539 48.7457 68.7539 47.3136C68.7539 45.8814 69.3228 44.508 70.3355 43.4953C71.3482 42.4826 72.7217 41.9137 74.1538 41.9137C74.8629 41.9137 75.5651 42.0534 76.2202 42.3247C76.8754 42.5961 77.4707 42.9939 77.9721 43.4953C78.4735 43.9967 78.8713 44.592 79.1426 45.2471C79.414 45.9023 79.5537 46.6045 79.5537 47.3136Z" fill="#00897B"/>
<path d="M78.9101 50.6898C78.9101 51.3989 78.7704 52.1011 78.4991 52.7562C78.2277 53.4114 77.8299 54.0067 77.3285 54.5081C76.8271 55.0095 76.2318 55.4073 75.5767 55.6786C74.9215 55.95 74.2193 56.0897 73.5102 56.0897C72.0781 56.0897 70.7046 55.5208 69.6919 54.5081C68.6793 53.4954 68.1104 52.1219 68.1104 50.6898C68.1104 49.2577 68.6793 47.8842 69.6919 46.8715C70.7046 45.8588 72.0781 45.2899 73.5102 45.2899C74.2193 45.2899 74.9215 45.4296 75.5767 45.701C76.2318 45.9723 76.8271 46.3701 77.3285 46.8715C77.8299 47.3729 78.2277 47.9682 78.4991 48.6234C78.7704 49.2785 78.9101 49.9807 78.9101 50.6898Z" fill="#00897B"/>
<path d="M82.3671 41.1239C82.3671 41.833 82.2275 42.5352 81.9561 43.1903C81.6847 43.8455 81.287 44.4407 80.7855 44.9422C80.2841 45.4436 79.6888 45.8414 79.0337 46.1127C78.3786 46.3841 77.6764 46.5238 76.9673 46.5238C75.5351 46.5238 74.1616 45.9548 73.149 44.9422C72.1363 43.9295 71.5674 42.556 71.5674 41.1239C71.5674 39.6917 72.1363 38.3183 73.149 37.3056C74.1616 36.2929 75.5351 35.724 76.9673 35.724C77.6764 35.724 78.3786 35.8637 79.0337 36.135C79.6888 36.4064 80.2841 36.8042 80.7855 37.3056C81.287 37.807 81.6847 38.4023 81.9561 39.0574C82.2275 39.7126 82.3671 40.4148 82.3671 41.1239Z" fill="#00897B"/>
<path d="M87.9931 47.7154C87.9931 49.1476 87.4242 50.5211 86.4115 51.5337C85.3988 52.5464 84.0254 53.1153 82.5932 53.1153C81.8841 53.1153 81.1819 52.9756 80.5268 52.7043C79.8717 52.4329 79.2764 52.0351 78.7749 51.5337C78.2735 51.0323 77.8758 50.437 77.6044 49.7819C77.333 49.1267 77.1934 48.4246 77.1934 47.7154C77.1934 47.0063 77.333 46.3041 77.6044 45.649C77.8758 44.9938 78.2735 44.3986 78.7749 43.8971C79.2764 43.3957 79.8717 42.998 80.5268 42.7266C81.1819 42.4552 81.8841 42.3156 82.5932 42.3156C84.0254 42.3156 85.3988 42.8845 86.4115 43.8971C87.4242 44.9098 87.9931 46.2833 87.9931 47.7154Z" fill="#00897B"/>
<path d="M87.3515 53.7443C87.3515 54.4534 87.2118 55.1556 86.9405 55.8107C86.6691 56.4659 86.2714 57.0612 85.7699 57.5626C85.2685 58.064 84.6732 58.4618 84.0181 58.7331C83.3629 59.0045 82.6608 59.1442 81.9516 59.1442C81.2425 59.1442 80.5403 59.0045 79.8852 58.7331C79.23 58.4618 78.6348 58.064 78.1333 57.5626C77.6319 57.0612 77.2342 56.4659 76.9628 55.8107C76.6914 55.1556 76.5518 54.4534 76.5518 53.7443C76.5518 53.0352 76.6914 52.333 76.9628 51.6779C77.2342 51.0227 77.6319 50.4274 78.1333 49.926C78.6348 49.4246 79.23 49.0268 79.8852 48.7555C80.5403 48.4841 81.2425 48.3444 81.9516 48.3444C82.6608 48.3444 83.3629 48.4841 84.0181 48.7555C84.6732 49.0268 85.2685 49.4246 85.7699 49.926C86.2714 50.4274 86.6691 51.0227 86.9405 51.6779C87.2118 52.333 87.3515 53.0352 87.3515 53.7443Z" fill="#00897B"/>
<path d="M77.7851 56.4775C77.7851 57.9096 77.2162 59.2831 76.2035 60.2957C75.1908 61.3084 73.8174 61.8773 72.3852 61.8773C71.6761 61.8773 70.9739 61.7377 70.3188 61.4663C69.6636 61.1949 69.0684 60.7972 68.5669 60.2957C68.0655 59.7943 67.6678 59.199 67.3964 58.5439C67.125 57.8888 66.9854 57.1866 66.9854 56.4775C66.9854 55.7683 67.125 55.0662 67.3964 54.411C67.6678 53.7559 68.0655 53.1606 68.5669 52.6592C69.0684 52.1577 69.6636 51.76 70.3188 51.4886C70.9739 51.2172 71.6761 51.0776 72.3852 51.0776C73.8174 51.0776 75.1908 51.6465 76.2035 52.6592C77.2162 53.6718 77.7851 55.0453 77.7851 56.4775Z" fill="#00897B"/>
<path d="M88.3163 42.1689C88.3163 42.878 88.1767 43.5802 87.9053 44.2354C87.6339 44.8905 87.2362 45.4858 86.7348 45.9872C86.2333 46.4886 85.6381 46.8864 84.9829 47.1578C84.3278 47.4291 83.6256 47.5688 82.9165 47.5688C81.4843 47.5688 80.1109 46.9999 79.0982 45.9872C78.0855 44.9745 77.5166 43.6011 77.5166 42.1689C77.5166 40.7368 78.0855 39.3633 79.0982 38.3506C80.1109 37.338 81.4843 36.769 82.9165 36.769C83.6256 36.769 84.3278 36.9087 84.9829 37.1801C85.6381 37.4514 86.2333 37.8492 86.7348 38.3506C87.2362 38.8521 87.6339 39.4473 87.9053 40.1025C88.1767 40.7576 88.3163 41.4598 88.3163 42.1689Z" fill="#00897B"/>
<path d="M51.3535 5.39988C51.3535 6.109 51.2138 6.81118 50.9424 7.46632C50.6711 8.12147 50.2733 8.71674 49.7719 9.21816C49.2705 9.71959 48.6752 10.1173 48.02 10.3887C47.3649 10.6601 46.6627 10.7997 45.9536 10.7997C45.2445 10.7997 44.5423 10.6601 43.8871 10.3887C43.232 10.1173 42.6367 9.71959 42.1353 9.21816C41.6339 8.71674 41.2361 8.12147 40.9648 7.46632C40.6934 6.81118 40.5537 6.109 40.5537 5.39988C40.5537 4.69076 40.6934 3.98858 40.9648 3.33343C41.2361 2.67829 41.6339 2.08301 42.1353 1.58159C42.6367 1.08016 43.232 0.682407 43.8871 0.411038C44.5423 0.139668 45.2445 -3.99518e-08 45.9536 0C46.6627 -3.99518e-08 47.3649 0.139668 48.02 0.411038C48.6752 0.682407 49.2705 1.08016 49.7719 1.58159C50.2733 2.08301 50.6711 2.67829 50.9424 3.33343C51.2138 3.98858 51.3535 4.69076 51.3535 5.39988Z" fill="#00695C"/>
<path d="M57.1406 11.1875C57.1406 11.8966 57.0009 12.5988 56.7295 13.254C56.4582 13.9091 56.0604 14.5044 55.559 15.0058C55.0576 15.5072 54.4623 15.905 53.8071 16.1764C53.152 16.4477 52.4498 16.5874 51.7407 16.5874C50.3086 16.5874 48.9351 16.0185 47.9224 15.0058C46.9097 13.9931 46.3408 12.6197 46.3408 11.1875C46.3408 9.75539 46.9097 8.38192 47.9224 7.36924C48.9351 6.35657 50.3086 5.78766 51.7407 5.78766C53.1728 5.78766 54.5463 6.35657 55.559 7.36924C56.5717 8.38192 57.1406 9.75539 57.1406 11.1875Z" fill="#00897B"/>
<path d="M51.3535 12.1522C51.3535 12.8613 51.2138 13.5635 50.9424 14.2186C50.6711 14.8738 50.2733 15.4691 49.7719 15.9705C49.2705 16.4719 48.6752 16.8697 48.02 17.141C47.3649 17.4124 46.6627 17.5521 45.9536 17.5521C45.2445 17.5521 44.5423 17.4124 43.8871 17.141C43.232 16.8697 42.6367 16.4719 42.1353 15.9705C41.6339 15.4691 41.2361 14.8738 40.9648 14.2186C40.6934 13.5635 40.5537 12.8613 40.5537 12.1522C40.5537 10.7201 41.1226 9.34658 42.1353 8.33391C43.148 7.32123 44.5215 6.75232 45.9536 6.75232C47.3857 6.75232 48.7592 7.32123 49.7719 8.33391C50.7846 9.34658 51.3535 10.7201 51.3535 12.1522Z" fill="#00897B"/>
</svg>
