<svg width="260" height="257" viewBox="0 0 260 257" fill="none" xmlns="http://www.w3.org/2000/svg">
<path d="M0.0432788 129.397C1.50512 181.851 36.5677 257.415 132.146 256.448C225.274 255.502 262.766 178.412 259.842 123.034C256.897 67.6557 213.278 -0.49177 127.008 0.00267503C40.7168 0.475623 -1.54755 73.0086 0.0432788 129.397Z" fill="url(#paint0_radial_47_33)"/>
<path d="M187.89 191.74C186.535 191.224 185.525 192.492 184.128 194.857C182.73 197.222 181.225 199.157 180.258 199.909C179.291 200.662 173.594 204.101 173.164 206.036C172.734 207.971 173.164 209.906 173.164 211.733C173.164 213.56 172.841 216.247 172.841 217.43C172.841 218.612 171.551 219.687 173.271 221.407C174.991 223.127 176.281 222.052 177.463 220.439C178.646 218.827 181.44 213.668 182.085 211.41C182.515 209.884 183.375 207.648 183.805 206.466C184.235 205.284 187.782 199.587 188.32 197.437C188.879 195.287 189.631 192.385 187.89 191.74Z" fill="#7ADD8A"/>
<path d="M135.995 76.5987C135.995 77.3726 136.554 78.168 137.994 78.168C139.435 78.168 140.037 77.2651 139.929 76.0828C139.843 74.9864 138.725 74.6424 137.758 74.7284C136.984 74.7929 135.995 75.3733 135.995 76.5987Z" fill="#BEDC9D"/>
<path d="M89.0432 59.9166C88.0543 59.8736 86.4634 60.798 86.3559 61.6794C86.1195 63.7862 85.453 67.7847 87.0439 68.0212C88.5057 68.2362 89.2581 65.678 89.4946 64.7106C89.7311 63.7432 90.5695 59.9811 89.0432 59.9166Z" fill="#95DA93"/>
<path d="M81.563 26.8317C79.6497 26.8317 78.3813 28.4655 78.0803 29.4544C77.7579 30.5293 77.9729 33.4744 77.07 33.8614C75.8446 34.3773 73.8883 33.9904 72.5984 34.3988C70.9216 34.9363 67.439 38.1179 67.525 38.8703C67.5895 39.5583 68.4279 41.0631 70.3412 41.3641C70.9861 41.4716 71.6525 41.2566 71.8245 40.8481C71.9105 40.6331 72.362 40.3107 72.7274 40.4397C73.2434 40.6116 73.1789 41.6435 73.5873 41.751C73.9958 41.8585 78.3168 41.923 78.8328 41.751C79.3487 41.579 82.0359 39.9882 82.4229 38.3329C82.8313 36.6776 82.9818 33.152 83.1323 30.2713C83.2828 27.7991 82.3584 26.8317 81.563 26.8317Z" fill="#7ADD8A"/>
<path d="M75.5853 10.128C75.5853 10.128 72.2746 14.234 70.2109 16.1688C68.1471 18.1036 64.557 20.8983 64.901 22.2742C65.0085 22.7256 66.2123 23.865 67.7601 23.478C69.308 23.0696 72.1027 21.3068 75.2843 20.1674C78.4875 19.028 80.6372 18.9205 81.2822 18.6196C81.9056 18.3401 88.9353 14.8575 91.6655 13.6536C94.3957 12.4497 104.844 9.44007 107.294 8.58016C109.745 7.72026 111.572 6.92484 111.164 5.33402C110.755 3.7432 105.918 3.95817 103.016 3.95817C100.114 3.95817 97.5129 3.09827 97.5129 3.09827C97.5129 3.09827 90.4401 4.73209 85.2807 6.47339C80.1643 8.2147 75.5853 10.128 75.5853 10.128Z" fill="white"/>
<path d="M142.099 7.59144C141.282 6.71003 141.862 5.63515 143.238 4.94723C144.592 4.2593 147.946 1.95906 147.946 1.95906C147.946 1.95906 174.797 1.5721 206.054 23.7792C236.215 45.2123 246.169 72.4713 246.169 72.4713C246.169 72.4713 247.05 75.9109 246.427 77.0503C245.803 78.2112 246.513 84.1875 244.75 94.1624C242.987 104.137 242.213 107.19 242.321 111.704C242.428 116.219 244.019 124.904 240.622 125.57C237.226 126.237 236.344 120.948 234.538 116.993C232.733 113.037 229.573 108.093 228.777 106.395C227.982 104.696 227.423 102.439 227.423 102.439C227.423 102.439 225.402 102.998 223.811 101.988C222.242 100.977 214.223 91.7332 213.213 90.9377C212.202 90.1423 209.601 90.5938 207.451 91.2817C205.302 91.9696 204.528 93.3025 199.669 92.851C194.811 92.3996 196.617 90.5938 194.037 88.788C191.457 86.9822 189.178 91.1527 186.706 91.1527C184.234 91.1527 182.643 89.9059 180.945 88.229C179.247 86.5522 177.226 84.6174 176.215 84.2735C175.205 83.9295 172.711 84.6174 173.743 87.0897C174.775 89.5619 176.667 89.7984 178.365 91.4967C180.063 93.195 179.827 94.2054 180.73 95.5597C181.633 96.9141 186.147 99.9667 187.158 99.7303C188.168 99.5153 190.081 98.3759 190.877 97.1291C191.672 95.8822 191.436 94.5278 192.898 94.3129C194.359 94.0979 195.606 96.2262 197.627 97.817C199.648 99.4078 201.905 99.3863 202.486 102.224C203.044 105.04 200.787 113.725 198.766 115.982C196.746 118.24 194.703 118.455 194.703 118.455L190.189 122.281C190.189 122.281 190.189 124.302 186.47 126.452C182.751 128.602 181.848 128.473 179.354 129.719C176.86 130.966 175.527 132.428 173.593 131.977C171.658 131.525 170.325 128.602 169.422 125.656C168.519 122.733 166.498 120.239 165.015 118.777C163.532 117.315 162.414 117.208 160.952 115.402C159.49 113.596 156.438 109.641 156.223 108.867C156.008 108.093 156.008 107.061 155.212 105.943C154.417 104.825 152.848 104.03 151.945 103.342C151.042 102.675 150.375 101.773 150.139 100.289C149.902 98.8059 147.667 97.0216 146.527 95.6672C145.388 94.3129 144.055 91.8406 142.808 92.7435C141.561 93.6464 143.023 95.5597 144.506 98.0535C145.99 100.547 146.656 102.224 146.979 103.922C147.323 105.621 146.871 106.738 148.097 107.534C149.322 108.329 150.698 107.426 152.16 110.909C153.621 114.392 153.062 117.681 154.632 119.035C156.201 120.389 156.545 119.594 157.899 121.292C159.254 122.991 159.017 125.463 160.608 126.602C162.199 127.742 166.928 129.762 168.734 132.579C170.54 135.395 169.637 136.642 171.335 137.652C173.034 138.662 176.301 137.76 179.677 136.642C183.052 135.524 187.695 131.912 189.608 132.471C191.522 133.03 191.07 140.146 189.157 145.563C187.244 150.981 185.782 152.679 184.428 154.356C183.073 156.033 181.16 159.537 177.204 162.933C173.249 166.33 167.96 171.618 166.606 178.498C165.252 185.377 166.821 196.878 166.606 199.823C166.391 202.768 166.713 204.553 165.144 206.144C163.575 207.734 157.126 213.367 156.008 215.388C154.89 217.408 155.664 219.902 154.89 222.718C154.116 225.534 149.128 230.049 147.452 230.952C145.775 231.855 146.205 233.553 142.271 236.928C138.337 240.303 137.09 241.443 135.391 241.658C133.693 241.873 124.449 242.324 120.945 240.991C117.441 239.637 115.076 237.487 114.066 236.369C113.055 235.251 112.045 234.004 110.454 233.102C108.885 232.199 107.079 230.285 105.832 228.587C104.585 226.889 101.21 222.374 97.9426 218.784C94.6749 215.194 92.9766 213.474 92.7616 209.54C92.5467 205.606 96.1368 201.522 96.1368 201.522C96.1368 201.522 95.1264 194.535 92.1812 189.332C89.236 184.13 85.302 183.249 82.9372 177.939C80.5725 172.629 81.6904 168.458 81.9268 166.781C82.1633 165.105 81.4754 162.267 78.8742 161.364C76.273 160.461 74.2522 161.579 72.7903 160.805C71.3285 160.031 69.4152 155.947 66.1261 155.732C62.8369 155.517 58.6879 160.01 55.0763 159.902C51.4647 159.795 51.3572 157.301 48.756 156.527C46.1548 155.753 45.2519 158.44 43.1236 157.989C40.9739 157.537 37.9427 154.485 36.2444 151.776C34.5461 149.067 32.5253 147.498 31.5149 145.907C30.5045 144.316 30.1606 143.198 30.1606 143.198C30.1606 143.198 26.5489 143.091 25.5386 137.437C24.5282 131.783 25.3236 129.096 26.205 126.151C27.1079 123.227 29.5801 115.316 29.8166 112.607C30.0531 109.899 29.4726 107.985 30.0316 106.524C30.5905 105.062 33.4067 102.804 34.6536 100.655C35.9004 98.5049 37.0183 96.2477 38.1577 94.6783C39.297 93.109 41.3178 94.4634 44.0265 90.9592C46.7352 87.4551 46.2838 86.8962 46.2838 86.8962C46.2838 86.8962 46.9502 83.1771 48.9925 80.6834C51.0347 78.1897 53.163 76.9643 54.6249 76.7278C56.0867 76.4913 58.129 77.1793 59.5908 77.1793C61.0526 77.1793 62.8584 77.5232 64.1053 77.2867C65.3522 77.0503 69.0713 74.1266 71.78 73.4602C74.4887 72.7937 76.8534 73.1162 79.0032 72.6648C81.1529 72.2133 84.872 71.7619 87.2368 73.4602C89.6015 75.1585 89.6015 76.3838 89.3865 77.1793C89.1715 77.9747 87.6882 79.888 88.2686 80.6834C88.8491 81.4788 90.6334 82.1452 91.6438 82.4892C92.6542 82.8331 94.245 82.9406 94.8039 83.2846C95.3629 83.6285 96.7172 85.1979 98.9745 86.3373C101.232 87.4766 104.843 89.3899 106.09 88.702C107.337 88.0141 107.208 84.9829 109.358 84.295C111.508 83.6286 114.539 84.4025 117.828 84.9614C121.117 85.5203 134.639 88.6805 136.101 88.229C137.563 87.7776 137.111 86.5307 138.81 86.0793C140.508 85.6278 142.185 85.7353 142.873 84.51C143.561 83.2846 143.99 77.2867 143.883 75.266C143.776 73.2452 143.776 70.7515 142.873 70.3C141.97 69.8486 139.497 72.5573 137.24 73.0087C134.983 73.4602 134.188 72.6648 133.177 72.7937C132.167 72.9227 131.264 74.4921 129.91 74.0406C128.555 73.5892 126.083 72.2348 124.729 70.8805C123.374 69.5261 122.579 67.1614 123.267 65.5705C123.955 63.9797 126.771 63.0983 129.028 62.1954C131.285 61.2925 133.887 61.0775 135.112 60.6261C136.337 60.1746 136.918 59.6157 138.487 59.6157C140.056 59.6157 140.508 60.9701 141.411 61.185C142.314 61.4 148.29 61.2925 149.3 61.0775C150.311 60.8626 154.718 58.8203 154.61 57.251C154.503 55.6816 151.343 57.036 150.44 56.1331C149.537 55.2302 146.162 50.8232 143.453 50.7157C140.744 50.6082 138.939 52.629 136.918 52.629C134.897 52.629 133.865 51.0596 132.511 51.2746C131.156 51.4896 128.899 53.5319 127.545 54.8862C126.19 56.2406 125.18 57.4874 124.944 58.0464C124.707 58.6053 125.954 61.099 124.385 62.1094C122.815 63.1198 120.666 63.3563 119.87 63.4638C119.075 63.5713 116.259 63.1198 115.7 64.9256C115.141 66.7314 115.356 68.7522 116.151 69.9991C116.946 71.2459 117.269 72.4713 115.807 73.7181C114.345 74.965 113.098 75.2875 112.195 73.6107C111.293 71.9123 111.852 71.8048 111.185 70.7945C110.519 69.7841 108.584 66.6239 107.81 64.2592C107.036 61.8944 106.456 60.1961 105.101 58.6268C103.747 57.0575 101.597 56.9285 100.135 55.5741C98.6735 54.2198 97.3191 52.3065 97.3191 52.3065C97.3191 52.3065 96.2013 54.3273 97.6631 57.8314C99.1249 61.3355 102.737 64.0442 102.973 65.3986C103.209 66.7529 102.629 69.0102 101.619 69.0102C100.608 69.0102 99.3614 67.8923 97.8996 66.194C96.4377 64.4957 93.8365 62.6899 92.4822 61.4645C91.1278 60.2391 89.5585 54.9292 88.7631 54.8002C87.9677 54.6712 86.2908 57.8529 83.7971 58.6268C81.3034 59.4007 79.1751 59.5297 79.1751 59.5297C79.1751 59.5297 77.6058 63.1413 75.4561 64.2592C73.3063 65.3771 72.1884 66.065 71.178 67.5268C70.1676 68.9887 68.8133 71.6974 67.8029 72.7078C66.7925 73.7181 63.9763 74.5136 63.0734 74.8575C62.1705 75.2015 60.2572 75.7604 59.6983 75.7604C59.1393 75.7604 56.0867 73.7396 55.6352 72.2563C55.1838 70.7945 54.2809 69.8916 54.2809 68.8812C54.2809 67.8708 56.8821 63.8077 57.5485 61.8944C58.215 59.9812 58.6664 57.9389 60.4722 56.477C62.278 55.0152 62.9444 56.477 65.6531 56.5845C68.3618 56.692 71.6295 56.3696 71.6295 56.3696C71.6295 56.3696 71.9734 55.5741 72.2959 54.8002C72.6184 54.0263 73.4138 54.1338 73.1988 53.5534C72.9838 52.9729 70.3826 51.2961 70.1461 50.0493C69.9312 48.8024 70.3611 48.3509 71.264 47.792C72.1669 47.2331 73.2848 46.2227 73.2848 46.2227C73.2848 46.2227 73.9512 45.3198 75.4345 44.7608C76.9179 44.2019 78.2507 45.6637 79.2611 45.3198C80.2715 44.9758 83.0877 43.514 84.2271 42.1596C85.3665 40.8053 86.6993 39.3434 87.8387 38.6555C88.9781 37.9676 91.7942 37.7526 92.8046 37.0862C93.815 36.4198 93.815 34.8289 94.7179 34.485C95.6208 34.141 96.9752 33.5821 98.5445 34.6999C100.114 35.8178 100.802 37.8601 102.5 38.0751C104.198 38.2901 105.768 37.6236 106.456 37.2797C107.144 36.9357 108.605 34.8074 110.519 33.6681C112.432 32.5502 113.679 31.8623 114.689 30.7444C115.7 29.6265 116.259 28.5946 116.259 28.5946C116.259 28.5946 119.182 28.2507 120.537 27.9282C121.891 27.6057 125.503 27.3693 124.815 25.2195C124.127 23.0697 121.547 24.3166 119.634 24.6606C117.72 25.0045 116.022 26.0149 115.571 25.327C115.119 24.6391 117.14 22.2743 117.591 21.5004C118.043 20.7265 119.161 19.3506 117.699 18.4477C116.237 17.5448 114.646 20.0171 113.743 21.1564C112.84 22.2958 111.271 24.2091 111.271 24.2091C111.271 24.2091 111.615 25.9074 111.615 26.9178C111.615 27.9282 109.917 29.2825 108.455 30.6369C106.993 31.9912 105.746 33.9045 103.94 33.797C102.135 33.6896 101.339 31.0883 101.232 30.7444C101.124 30.4004 101.232 28.5946 100.673 28.4871C100.114 28.3796 98.867 30.8519 96.7172 30.5079C94.5674 30.1639 94.245 27.5842 95.4703 25.0905C96.6957 22.5968 99.0819 21.9304 100.888 21.0275C102.694 20.1246 104.263 19.5656 105.295 18.7702C106.327 17.9748 106.649 17.3084 107.316 16.513C107.982 15.7175 113.399 11.7835 116.667 10.3001C119.935 8.8168 122.084 7.82791 123.654 7.59144C125.223 7.37646 127.158 7.24747 128.62 8.25786C130.082 9.26825 134.037 11.633 135.047 12.6649C136.058 13.6968 136.853 14.5782 139.003 14.1267C141.153 13.6753 146.893 11.5255 147.581 10.8591C148.269 10.1926 146.914 8.38685 146.226 8.25786C145.538 8.12888 143.152 8.73081 142.099 7.59144Z" fill="#7ADD8A"/>
<path d="M81.9268 166.738C82.1418 165.04 81.4754 162.224 78.8742 161.321C76.273 160.418 74.2522 161.536 72.7903 160.762C71.3285 159.988 69.4152 155.904 66.1261 155.689C62.8369 155.474 58.6879 159.967 55.0763 159.859C51.4647 159.752 51.3572 157.258 48.756 156.484C46.1548 155.71 45.2519 158.397 43.1236 157.946C40.9739 157.494 37.9427 154.442 36.2444 151.733C34.5461 149.024 32.5253 147.455 31.5149 145.864C30.5045 144.273 30.1606 143.155 30.1606 143.155C30.1606 143.155 26.5489 143.048 25.5386 137.394C24.5282 131.74 25.3236 129.053 26.205 126.108C27.1079 123.184 29.5801 115.273 29.8166 112.564C30.0531 109.856 29.4726 107.942 30.0316 106.481C30.5905 105.019 33.4067 102.761 34.6536 100.612C35.9004 98.4619 37.0183 96.2047 38.1577 94.6353C39.297 93.066 41.3178 94.4204 44.0265 90.9162C46.7352 87.4121 46.2838 86.8532 46.2838 86.8532C46.2838 86.8532 46.9502 83.1341 48.9925 80.6404C51.0347 78.1467 53.163 76.9213 54.6249 76.6848C56.0867 76.4483 58.129 77.1363 59.5908 77.1363C61.0526 77.1363 62.8584 77.4802 64.1053 77.2437C65.3522 77.0073 69.0713 74.0836 71.78 73.4172C74.4887 72.7507 76.8534 73.0732 79.0032 72.6218C81.1529 72.1703 84.872 71.7189 87.2368 73.4172C89.6015 75.1155 89.6015 76.3409 89.3865 77.1363C89.1715 77.9317 87.6882 79.845 88.2686 80.6404C88.8491 81.4358 90.6334 82.1022 91.6438 82.4462C92.6542 82.7901 94.245 82.8976 94.8039 83.2416C95.3629 83.5856 96.7172 85.1549 98.9745 86.2943C101.232 87.4336 104.843 89.3469 106.09 88.659C107.337 87.9711 107.208 84.9399 109.358 84.252C111.508 83.5856 114.539 84.3595 117.828 84.9184C121.117 85.4773 134.639 88.6375 136.101 88.186C137.563 87.7346 137.111 86.4877 138.81 86.0363C140.508 85.5848 142.185 85.6923 142.873 84.467C143.561 83.2416 143.99 77.2438 143.883 75.223C143.776 73.2022 143.776 70.7085 142.873 70.257C141.97 69.8056 139.497 72.5143 137.24 72.9657C134.983 73.4172 134.188 72.6218 133.177 72.7508C132.167 72.8797 131.264 74.4491 129.91 73.9976C128.555 73.5462 126.083 72.1918 124.729 70.8375C123.374 69.4831 122.579 67.1184 123.267 65.5275C123.955 63.9367 126.771 63.0553 129.028 62.1524C131.285 61.2495 133.887 61.0345 135.112 60.5831C136.337 60.1316 136.918 59.5727 138.487 59.5727C140.056 59.5727 140.508 60.9271 141.411 61.142C142.314 61.357 148.29 61.2495 149.3 61.0345C150.311 60.8196 154.718 58.7773 154.61 57.208C154.503 55.6386 151.343 56.993 150.44 56.0901C149.537 55.1872 146.14 50.9736 143.453 50.6727C137.197 49.9633 130.168 42.3531 130.017 31.4968C129.867 20.6405 135.477 14.9436 139.046 14.1267C141.174 13.6323 146.936 11.5255 147.624 10.8591C148.312 10.1926 146.957 8.38685 146.269 8.25786C145.581 8.12888 143.217 8.73081 142.142 7.59144C141.325 6.71003 141.905 5.63515 143.281 4.94723C144.635 4.2593 147.989 1.95906 147.989 1.95906C147.989 1.95906 174.84 1.5721 206.097 23.7792C236.215 45.2123 246.169 72.4713 246.169 72.4713C246.169 72.4713 247.05 75.9109 246.427 77.0503C245.803 78.2112 246.513 84.1875 244.75 94.1624C242.987 104.137 242.213 107.19 242.321 111.704C242.428 116.219 244.019 124.904 240.622 125.57C237.226 126.237 236.344 120.948 234.538 116.993C232.733 113.037 229.573 108.093 228.777 106.395C227.982 104.696 227.423 102.439 227.423 102.439C227.423 102.439 225.402 102.998 223.811 101.988C222.242 100.977 214.223 91.7332 213.213 90.9377C212.202 90.1423 209.601 90.5938 207.451 91.2817C205.302 91.9696 204.528 93.3025 199.669 92.851C194.811 92.3996 196.617 90.5938 194.037 88.788C191.457 86.9822 189.178 91.1527 186.706 91.1527C184.234 91.1527 182.643 89.9059 180.945 88.229C179.247 86.5522 177.226 84.6174 176.215 84.2735C175.205 83.9295 172.711 84.6174 173.743 87.0897C174.775 89.5619 176.667 89.7984 178.365 91.4967C180.063 93.195 179.827 94.2054 180.73 95.5597C181.633 96.9141 186.147 99.9667 187.158 99.7303C188.168 99.5153 190.081 98.3759 190.877 97.1291C191.672 95.8822 191.436 94.5278 192.898 94.3129C194.359 94.0979 195.606 96.2262 197.627 97.817C199.648 99.4078 201.905 99.3863 202.486 102.224C203.044 105.04 200.787 113.725 198.766 115.982C196.746 118.24 194.703 118.455 194.703 118.455L190.189 122.281C190.189 122.281 190.189 124.302 186.47 126.452C182.751 128.602 181.848 128.473 179.354 129.719C176.86 130.966 175.527 132.428 173.593 131.977C171.658 131.525 170.325 128.602 169.422 125.656C168.519 122.733 166.498 120.239 165.015 118.777C163.532 117.315 162.414 117.208 160.952 115.402C159.49 113.596 156.438 109.641 156.223 108.867C156.008 108.093 156.008 107.061 155.212 105.943C154.417 104.825 152.848 104.03 151.945 103.342C151.042 102.675 150.375 101.773 150.139 100.289C149.902 98.8059 147.667 97.0216 146.527 95.6672C145.388 94.3129 144.055 91.8406 142.808 92.7435C141.561 93.6464 143.023 95.5597 144.506 98.0535C145.99 100.547 146.656 102.224 146.979 103.922C147.323 105.621 146.871 106.738 148.097 107.534C149.322 108.329 150.698 107.426 152.16 110.909C153.621 114.392 153.062 117.681 154.632 119.035C156.201 120.389 156.545 119.594 157.899 121.292C159.254 122.991 159.017 125.463 160.608 126.602C162.199 127.742 166.928 129.762 168.734 132.579C170.54 135.395 169.637 136.642 171.335 137.652C173.034 138.662 176.301 137.76 179.677 136.642C183.052 135.524 187.695 131.912 189.608 132.471C191.522 133.03 191.07 140.146 189.157 145.563C187.244 150.981 185.782 152.679 184.428 154.356C183.073 156.033 181.16 159.537 177.204 162.933C173.249 166.33 167.96 171.618 166.606 178.498C166.606 178.498 146.742 193.331 126.104 190.708C104.37 187.892 81.7978 167.598 81.9268 166.738Z" fill="url(#paint1_radial_47_33)"/>
<path d="M81.9268 166.738C82.1418 165.04 81.4754 162.224 78.8742 161.321C76.273 160.418 74.2522 161.536 72.7903 160.762C71.3285 159.988 69.4152 155.904 66.1261 155.689C62.8369 155.474 58.6879 159.967 55.0763 159.859C51.4647 159.752 51.3572 157.258 48.756 156.484C46.1548 155.71 45.2519 158.397 43.1236 157.946C40.9739 157.494 37.9427 154.442 36.2444 151.733C34.5461 149.024 32.5253 147.455 31.5149 145.864C30.5045 144.273 30.1606 143.155 30.1606 143.155C30.1606 143.155 26.5489 143.048 25.5386 137.394C24.5282 131.74 25.3236 129.053 26.205 126.108C27.1079 123.184 29.5801 115.273 29.8166 112.564C30.0531 109.856 29.4726 107.942 30.0316 106.481C30.5905 105.019 33.4067 102.761 34.6536 100.612C35.9004 98.4619 37.0183 96.2047 38.1577 94.6353C39.297 93.066 41.3178 94.4204 44.0265 90.9162C46.7352 87.4121 46.2838 86.8532 46.2838 86.8532C46.2838 86.8532 46.9502 83.1341 48.9925 80.6404C51.0347 78.1467 53.163 76.9213 54.6249 76.6848C56.0867 76.4483 58.129 77.1363 59.5908 77.1363C61.0526 77.1363 62.8584 77.4802 64.1053 77.2437C65.3522 77.0073 69.0713 74.0836 71.78 73.4172C74.4887 72.7507 76.8534 73.0732 79.0032 72.6218C81.1529 72.1703 84.872 71.7189 87.2368 73.4172C89.6015 75.1155 89.6015 76.3409 89.3865 77.1363C89.1715 77.9317 87.6882 79.845 88.2686 80.6404C88.8491 81.4358 90.6334 82.1022 91.6438 82.4462C92.6542 82.7901 94.245 82.8976 94.8039 83.2416C95.3629 83.5856 96.7172 85.1549 98.9745 86.2943C101.232 87.4336 104.843 89.3469 106.09 88.659C107.337 87.9711 107.208 84.9399 109.358 84.252C111.508 83.5856 114.539 84.3595 117.828 84.9184C121.117 85.4773 134.639 88.6375 136.101 88.186C137.563 87.7346 137.111 86.4877 138.81 86.0363C140.508 85.5848 142.185 85.6923 142.873 84.467C143.561 83.2416 143.99 77.2438 143.883 75.223C143.776 73.2022 143.776 70.7085 142.873 70.257C141.97 69.8056 139.497 72.5143 137.24 72.9657C134.983 73.4172 134.188 72.6218 133.177 72.7508C132.167 72.8797 131.264 74.4491 129.91 73.9976C128.555 73.5462 126.083 72.1918 124.729 70.8375C123.374 69.4831 122.579 67.1184 123.267 65.5275C123.955 63.9367 126.771 63.0553 129.028 62.1524C131.285 61.2495 133.887 61.0345 135.112 60.5831C136.337 60.1316 136.918 59.5727 138.487 59.5727C140.056 59.5727 140.508 60.9271 141.411 61.142C142.314 61.357 148.29 61.2495 149.3 61.0345C150.311 60.8196 154.718 58.7773 154.61 57.208C154.503 55.6386 151.343 56.993 150.44 56.0901C149.537 55.1872 146.14 50.9736 143.453 50.6727C137.197 49.9633 130.168 42.3531 130.017 31.4968C129.867 20.6405 135.477 14.9436 139.046 14.1267C141.174 13.6323 146.936 11.5255 147.624 10.8591C148.312 10.1926 146.957 8.38685 146.269 8.25786C145.581 8.12888 143.217 8.73081 142.142 7.59144C141.325 6.71003 141.905 5.63515 143.281 4.94723C144.635 4.2593 147.989 1.95906 147.989 1.95906C147.989 1.95906 174.84 1.5721 206.097 23.7792C236.215 45.2123 246.169 72.4713 246.169 72.4713C246.169 72.4713 247.05 75.9109 246.427 77.0503C245.803 78.2112 246.513 84.1875 244.75 94.1624C242.987 104.137 242.213 107.19 242.321 111.704C242.428 116.219 244.019 124.904 240.622 125.57C237.226 126.237 236.344 120.948 234.538 116.993C232.733 113.037 229.573 108.093 228.777 106.395C227.982 104.696 227.423 102.439 227.423 102.439C227.423 102.439 225.402 102.998 223.811 101.988C222.242 100.977 214.223 91.7332 213.213 90.9377C212.202 90.1423 209.601 90.5938 207.451 91.2817C205.302 91.9696 204.528 93.3025 199.669 92.851C194.811 92.3996 196.617 90.5938 194.037 88.788C191.457 86.9822 189.178 91.1527 186.706 91.1527C184.234 91.1527 182.643 89.9059 180.945 88.229C179.247 86.5522 177.226 84.6174 176.215 84.2735C175.205 83.9295 172.711 84.6174 173.743 87.0897C174.775 89.5619 176.667 89.7984 178.365 91.4967C180.063 93.195 179.827 94.2054 180.73 95.5597C181.633 96.9141 186.147 99.9667 187.158 99.7303C188.168 99.5153 190.081 98.3759 190.877 97.1291C191.672 95.8822 191.436 94.5278 192.898 94.3129C194.359 94.0979 195.606 96.2262 197.627 97.817C199.648 99.4078 201.905 99.3863 202.486 102.224C203.044 105.04 200.787 113.725 198.766 115.982C196.746 118.24 194.703 118.455 194.703 118.455L190.189 122.281C190.189 122.281 190.189 124.302 186.47 126.452C182.751 128.602 181.848 128.473 179.354 129.719C176.86 130.966 175.527 132.428 173.593 131.977C171.658 131.525 170.325 128.602 169.422 125.656C168.519 122.733 166.498 120.239 165.015 118.777C163.532 117.315 162.414 117.208 160.952 115.402C159.49 113.596 156.438 109.641 156.223 108.867C156.008 108.093 156.008 107.061 155.212 105.943C154.417 104.825 152.848 104.03 151.945 103.342C151.042 102.675 150.375 101.773 150.139 100.289C149.902 98.8059 147.667 97.0216 146.527 95.6672C145.388 94.3129 144.055 91.8406 142.808 92.7435C141.561 93.6464 143.023 95.5597 144.506 98.0535C145.99 100.547 146.656 102.224 146.979 103.922C147.323 105.621 146.871 106.738 148.097 107.534C149.322 108.329 150.698 107.426 152.16 110.909C153.621 114.392 153.062 117.681 154.632 119.035C156.201 120.389 156.545 119.594 157.899 121.292C159.254 122.991 159.017 125.463 160.608 126.602C162.199 127.742 166.928 129.762 168.734 132.579C170.54 135.395 169.637 136.642 171.335 137.652C173.034 138.662 176.301 137.76 179.677 136.642C183.052 135.524 187.695 131.912 189.608 132.471C191.522 133.03 191.07 140.146 189.157 145.563C187.244 150.981 185.782 152.679 184.428 154.356C183.073 156.033 181.16 159.537 177.204 162.933C173.249 166.33 167.96 171.618 166.606 178.498C166.606 178.498 146.742 193.331 126.104 190.708C104.37 187.892 81.7978 167.598 81.9268 166.738Z" fill="url(#paint2_radial_47_33)"/>
<path d="M120.946 240.948C117.356 239.83 115.077 237.444 114.067 236.326C113.057 235.208 112.046 233.961 110.455 233.058C108.886 232.156 107.08 230.242 105.833 228.544C104.587 226.846 101.211 222.331 97.9438 218.741C94.6762 215.151 92.9779 213.431 92.7629 209.497C92.5479 205.563 96.138 201.478 96.138 201.478C96.138 201.478 95.1276 194.492 92.1825 189.289C89.2373 184.087 85.3032 183.205 82.9385 177.896C82.9385 177.896 103.899 175.918 121.441 179.873C138.983 183.829 166.629 199.78 166.629 199.78C166.414 202.704 166.736 204.51 165.167 206.1C163.598 207.691 157.148 213.324 156.03 215.344C154.913 217.365 155.686 219.859 154.913 222.675C154.139 225.491 149.151 230.006 147.474 230.909C145.798 231.812 146.227 233.51 142.293 236.885C138.359 240.26 137.091 241.335 135.414 241.615C134.081 241.851 124.708 242.13 120.946 240.948Z" fill="url(#paint3_radial_47_33)"/>
<path d="M164.264 45.0832C162.587 44.9113 159.771 48.2864 159.685 49.8127C159.599 51.339 160.093 53.4243 160.738 53.9833C161.383 54.5422 165.231 56.477 166.112 57.7453C166.994 59.0137 167.402 63.3562 169.079 65.4415C170.756 67.5268 172.777 69.698 177.184 69.612C181.591 69.526 180.946 67.2258 180.946 66.2369C180.946 64.5601 175.722 58.8632 173.636 56.8424C171.551 54.8432 168.026 53.2308 167.381 51.7045C166.736 50.1782 167.94 49.0603 167.467 47.8564C166.994 46.6741 165.876 45.2337 164.264 45.0832Z" fill="#4B9CED"/>
<path d="M149.065 170.629C148.42 169.791 145.518 169.662 144.55 170.285C143.583 170.909 142.121 175.488 142.529 176.262C142.938 177.036 145.732 176.821 146.7 176.477C147.667 176.133 149.753 171.532 149.065 170.629Z" fill="#4186F1"/>
<defs>
<radialGradient id="paint0_radial_47_33" cx="0" cy="0" r="1" gradientUnits="userSpaceOnUse" gradientTransform="translate(87.8189 52.8341) rotate(51.2641) scale(195.513 145.762)">
<stop offset="0.506" stop-color="#17A1F3"/>
<stop offset="0.767" stop-color="#1B7FFA"/>
<stop offset="0.962" stop-color="#1366F0"/>
<stop offset="1" stop-color="#1160EE"/>
</radialGradient>
<radialGradient id="paint1_radial_47_33" cx="0" cy="0" r="1" gradientUnits="userSpaceOnUse" gradientTransform="translate(131.587 113.39) rotate(-71.3313) scale(45.9734 156.199)">
<stop offset="0.118" stop-color="#E3DDA6"/>
<stop offset="0.907" stop-color="#E3DDA6" stop-opacity="0.083"/>
<stop offset="0.978" stop-color="#E3DDA6" stop-opacity="0"/>
</radialGradient>
<radialGradient id="paint2_radial_47_33" cx="0" cy="0" r="1" gradientUnits="userSpaceOnUse" gradientTransform="translate(182.358 81.9993) rotate(-139.498) scale(40.0276 69.6556)">
<stop offset="0.118" stop-color="#E3DDA6"/>
<stop offset="0.907" stop-color="#E3DDA6" stop-opacity="0.083"/>
<stop offset="0.978" stop-color="#E3DDA6" stop-opacity="0"/>
</radialGradient>
<radialGradient id="paint3_radial_47_33" cx="0" cy="0" r="1" gradientUnits="userSpaceOnUse" gradientTransform="translate(125.035 245.658) rotate(-77.7136) scale(38.4637 75.015)">
<stop stop-color="#E3DDA6"/>
<stop offset="0.818" stop-color="#E3DDA6" stop-opacity="0"/>
</radialGradient>
</defs>
</svg>
