<svg width="249" height="221" viewBox="0 0 249 221" fill="none" xmlns="http://www.w3.org/2000/svg">
<path d="M132.952 54.3335C132.952 54.3335 129.055 55.6446 127.662 54.6182C125.343 52.9092 121.925 52.1158 120.46 54.0689C118.385 56.836 114.723 58.7281 114.723 58.7281L116.676 77.4453L132.463 77.2828L132.952 54.3335Z" fill="#AAC864"/>
<path d="M142.229 51.729C142.229 51.729 133.582 50.2236 131.161 51.8916C128.6 53.6558 129.063 56.3228 126.116 58.0767C122.901 59.9893 123.287 67.8628 125.404 71.2808C127.519 74.6987 124.976 78.3403 124.976 78.3403L136.207 78.4219L142.229 51.729Z" fill="#88BE64"/>
<path d="M148.902 80.375C148.902 80.375 133.977 79.3984 128.093 76.4687C128.093 76.4687 125.465 65.4009 127.092 62.4712C128.72 59.5415 129.74 60.0757 130.998 58.5649C132.626 56.6118 133.112 53.5781 135.067 52.0547C136.634 50.834 140.764 51.2407 142.88 47.4975C144.995 43.7539 150.692 45.707 150.692 45.707L148.902 80.375Z" fill="#5F9D5F"/>
<path d="M210.263 129.529C210.263 110.974 129.371 108.207 129.371 101.005C129.371 96.3257 152.483 94.6978 152.483 86.397C152.483 80.4961 132.85 81.2539 128.093 76.4688L119.361 76.3467C111.82 79.5898 127.906 83.4375 127.906 84.9321C127.906 89.7744 75.1719 88.8228 75.1719 102.51C75.1719 117.484 127.906 116.02 127.906 126.273C127.906 141.328 48.3706 132.818 37.9111 186.581C60.3296 207.894 90.625 221 124 221C149.738 221 173.653 213.214 193.535 199.879C170.875 187.797 161.109 175.077 161.109 165.987C161.109 152.641 210.263 145.154 210.263 129.529Z" fill="#789BB4"/>
<path d="M113.583 77.6079L121.196 76.3764C121.196 76.3764 122.657 63.1626 119.768 59.3784C118.264 57.4077 116.188 51.8916 114.723 50.915C113.258 49.9385 109.025 53.0312 109.025 53.0312L113.583 77.6079Z" fill="#88BE64"/>
<path d="M104.794 85.9087C104.794 85.9087 114.234 84.9321 114.56 81.0258C114.885 77.1196 110.508 48.977 109.188 47.8227C106.584 45.5439 106.136 51.5205 102.515 45.2187C98.1206 37.5688 91.1221 39.0337 91.1221 39.0337L104.794 85.9087Z" fill="#5F9D5F"/>
<path d="M161.11 165.987C161.11 152.641 210.264 145.153 210.264 129.528C210.264 112.449 141.772 108.745 130.874 102.646C136.056 107.616 202.962 117.087 204.811 127.006C207.497 141.41 174.613 142.253 160.133 157.768C146.267 172.625 169.688 194.927 183.364 205.942C186.845 204.058 190.263 202.074 193.535 199.879C170.875 187.797 161.11 175.077 161.11 165.987Z" fill="#D6E1E8"/>
<path d="M130.673 124.158C124.163 116.671 91.4482 116.183 80.3804 109.347C80.1304 109.192 79.8408 109.128 79.5542 109.058C92.1875 117.325 127.906 117.832 127.906 126.273C127.906 141.328 48.3706 132.818 37.9111 186.581C40.7393 189.269 43.6934 191.825 46.7622 194.243C46.5581 179.432 58.7329 153.943 84.4492 146.781C122.646 136.144 137.184 131.645 130.673 124.158Z" fill="#D6E1E8"/>
<path d="M164.076 119.613C160.015 118.191 155.932 116.96 151.863 115.807C143.725 113.508 135.654 111.551 127.889 109.539C124.009 108.527 120.198 107.516 116.542 106.346C114.721 105.755 112.925 105.129 111.274 104.34C110.463 103.946 109.644 103.489 109.13 102.937C108.611 102.38 108.806 102.093 109.523 101.542C110.921 100.672 112.768 100.19 114.421 99.5762C116.115 99.0147 117.783 98.4609 119.424 97.9175C122.723 96.8608 125.911 95.8408 128.971 94.8608C132.032 93.8657 134.965 92.8916 137.668 91.6587C139.006 91.0195 140.327 90.3755 141.408 89.2998C141.929 88.7925 142.424 87.9336 142.197 87.0474C141.971 86.1973 141.379 85.6738 140.841 85.252C139.723 84.4185 138.533 83.9072 137.388 83.4399C136.822 83.1826 129.231 80.9561 127.493 80.2832C125.782 79.5811 124.289 78.8164 123.231 77.9355C122.675 77.4727 122.304 76.8516 122.116 76.377H121.289C121.388 76.7524 121.576 77.2207 121.821 77.5884C122.701 79.0146 124.274 79.9307 125.992 80.7773C127.725 81.6016 129.743 82.377 131.919 83.04C132.193 83.1367 137.648 84.9536 138.761 85.5713C139.819 86.1563 141.06 87.1357 140.43 88.0869C139.794 89.0742 138.433 89.7793 137.153 90.3965C134.499 91.6152 131.524 92.564 128.427 93.5273C122.209 95.4365 115.371 97.1279 108.271 99.627C107.375 99.9839 106.453 100.338 105.622 101.152C105.219 101.532 104.849 102.34 105.107 103.031C105.331 103.688 105.752 104.089 106.148 104.439C107.796 105.749 109.626 106.457 111.459 107.215C115.147 108.658 118.983 109.831 122.881 111.02C130.683 113.37 138.772 115.645 146.883 118.264C150.939 119.571 154.997 120.96 159.013 122.499C160.962 123.236 162.956 124.136 164.154 125.442C165.368 126.674 164.615 128.219 163.144 129.681C160.215 132.478 156.314 134.556 152.591 136.618C148.808 138.653 144.96 140.579 141.154 142.528C133.542 146.427 126.043 150.374 119.221 155.041C115.823 157.385 112.576 159.89 109.73 162.793C106.828 165.697 104.563 169.203 103.207 172.942C100.445 180.528 101.585 188.34 103.636 194.662C105.707 201.089 108.704 206.466 111.571 211.024C114.057 214.891 116.474 218.142 118.657 220.869C120.41 220.942 122.168 220.997 123.939 220.998C123.576 220.581 123.221 220.175 122.836 219.722C120.416 216.875 117.617 213.293 114.75 208.97C111.933 204.632 109.007 199.522 106.997 193.562C104.994 187.674 103.938 180.673 106.265 174.028C108.444 167.314 114.378 162.05 120.889 157.435C127.445 152.812 134.805 148.795 142.339 144.806C146.109 142.807 149.937 140.825 153.739 138.711C157.51 136.533 161.385 134.475 164.724 131.22C165.527 130.375 166.332 129.412 166.741 128.057C167.209 126.679 166.658 124.977 165.748 124.053C163.941 122.181 161.775 121.386 159.722 120.604C155.642 119.106 151.53 117.765 147.436 116.508C145.842 116.019 144.27 115.587 142.682 115.122C145.566 115.917 148.45 116.704 151.352 117.567C155.379 118.769 159.42 120.049 163.394 121.501C165.353 122.218 167.334 122.998 168.519 124.313C169.758 125.547 169.292 127.19 168.063 128.768C165.572 131.843 161.892 134.21 158.383 136.481C154.809 138.735 151.122 140.825 147.456 142.89C140.116 147.016 132.797 150.979 125.977 155.377C122.58 157.582 119.272 159.914 116.312 162.549C113.279 165.291 110.804 168.594 109.378 172.327C106.486 179.939 108.39 187.77 110.997 193.757C113.723 199.853 117.211 204.826 120.506 208.992C123.821 213.154 126.992 216.523 129.678 219.21C130.217 219.75 130.721 220.242 131.22 220.728C133.041 220.624 134.848 220.47 136.648 220.289C135.445 219.206 134.055 217.926 132.471 216.381C129.823 213.807 126.7 210.579 123.453 206.617C120.224 202.659 116.835 197.939 114.229 192.322C111.719 186.77 110.05 179.917 112.416 173.461C114.661 166.952 121.018 162.232 127.577 157.811C134.197 153.405 141.427 149.35 148.725 145.11C152.375 142.985 156.057 140.83 159.667 138.48C163.235 136.07 166.92 133.728 169.817 130.084C170.51 129.152 171.143 128.05 171.351 126.694C171.571 125.309 170.974 123.811 170.079 122.907C168.302 121.051 166.076 120.348 164.076 119.613ZM106.942 103.499C106.245 102.882 105.989 102.46 106.494 101.963C107.006 101.429 107.863 101.025 108.687 100.7C108.699 100.695 108.71 100.692 108.722 100.688C108.345 100.962 107.948 101.287 107.722 101.884C107.472 102.618 107.859 103.354 108.22 103.738C108.981 104.56 109.852 105.012 110.719 105.462C111.104 105.653 111.504 105.802 111.896 105.975C110.124 105.283 108.302 104.56 106.942 103.499Z" fill="#E6C35A"/>
<path d="M75.6143 81.4932H71.373V124.159H75.6143V81.4932Z" fill="#5F4648"/>
<path d="M89.3975 93.2959C89.3975 105.5 82.2778 111.625 73.4956 111.625C64.7134 111.625 57.5938 105.5 57.5938 93.2959C57.5938 81.0923 67.3345 33.5 73.4956 33.5C79.6567 33.5 89.3975 81.0918 89.3975 93.2959Z" fill="#5F8C6E"/>
<path d="M73.4956 33.5C72.2754 33.5 70.9141 35.3867 69.5166 38.4756C74.5425 46.0874 81.0449 83.6953 81.0449 94.1416C81.0449 104.347 76.5068 110.093 70.481 111.355C71.459 111.524 72.4629 111.625 73.4956 111.625C82.2778 111.625 89.3975 105.5 89.3975 93.2954C89.3975 81.0913 79.6567 33.5 73.4956 33.5Z" fill="#5F9D5F"/>
<path d="M169.516 88.3096H166.158V103.812H169.516V88.3096Z" fill="#5F4648"/>
<path d="M180.428 76.9321C180.428 86.5933 174.791 91.4429 167.839 91.4429C160.886 91.4429 155.25 86.5933 155.25 76.9321C155.25 67.271 162.961 29.5938 167.838 29.5938C172.716 29.5938 180.428 67.2705 180.428 76.9321Z" fill="#5F8C6E"/>
<path d="M167.838 29.5938C166.873 29.5938 165.795 31.0874 164.688 33.5327C168.667 39.5586 173.815 69.3315 173.815 77.6016C173.815 85.6812 170.222 90.2295 165.452 91.229C166.226 91.3628 167.021 91.4429 167.838 91.4429C174.791 91.4429 180.427 86.5933 180.427 76.9321C180.427 67.271 172.716 29.5938 167.838 29.5938Z" fill="#5F9D5F"/>
<path d="M49.9258 119.599H46.3633V136.2H49.9258V119.599Z" fill="#5F4648"/>
<path d="M61.5 107.166C61.5 117.417 55.5195 122.563 48.1426 122.563C40.7656 122.563 34.7852 117.417 34.7852 107.166C34.7852 96.9146 42.9673 56.9375 48.1421 56.9375C53.3169 56.9375 61.5 96.9146 61.5 107.166Z" fill="#5FAF50"/>
<path d="M48.1421 56.9375C47.1172 56.9375 45.9736 58.5225 44.7998 61.1172C49.0215 67.5112 54.4834 99.1016 54.4834 107.876C54.4834 116.449 50.6714 121.275 45.6099 122.336C46.4312 122.478 47.2744 122.563 48.1421 122.563C55.5195 122.563 61.4995 117.417 61.4995 107.166C61.4995 96.9155 53.3169 56.9375 48.1421 56.9375Z" fill="#74B75A"/>
<path d="M94.5938 77.5869H90.3525V124.809H94.5938V77.5869Z" fill="#5F4648"/>
<path d="M108.375 89.3892C108.375 101.593 101.255 107.719 92.4731 107.719C83.6909 107.719 76.5713 101.593 76.5713 89.3892C76.5713 77.1851 86.312 29.5938 92.4731 29.5938C98.6343 29.5938 108.375 77.1855 108.375 89.3892Z" fill="#E6AA55"/>
<path d="M92.4731 29.5938C91.2529 29.5938 89.8916 31.4805 88.4941 34.5693C93.52 42.1812 100.022 79.7891 100.022 90.2354C100.022 100.441 95.4844 106.187 89.4585 107.449C90.4365 107.618 91.4404 107.719 92.4731 107.719C101.255 107.719 108.375 101.593 108.375 89.3892C108.375 77.1851 98.6338 29.5938 92.4731 29.5938Z" fill="#E6C35A"/>
<path d="M158.671 83.915H155.108V103.812H158.671V83.915Z" fill="#5F4648"/>
<path d="M143.531 72.0098C143.531 82.2607 149.512 87.4067 156.889 87.4067C164.266 87.4067 170.246 82.2612 170.246 72.0098C170.246 61.7583 162.064 21.7812 156.889 21.7812C151.714 21.7812 143.531 61.7583 143.531 72.0098Z" fill="#E6AA55"/>
<path d="M156.889 21.7812C157.914 21.7812 159.057 23.3662 160.231 25.9609C156.009 32.355 150.547 63.9453 150.547 72.7202C150.547 81.293 154.359 86.1191 159.421 87.1797C158.6 87.3218 157.756 87.4067 156.889 87.4067C149.511 87.4067 143.531 82.2612 143.531 72.0103C143.531 61.7593 151.714 21.7812 156.889 21.7812Z" fill="#E6C35A"/>
<path d="M23.8604 126.435H18.4307V151.825H23.8604V126.435Z" fill="#5F4648"/>
<path d="M0.790039 106.132C0.790039 121.753 9.90283 129.594 21.1445 129.594C32.3862 129.594 41.499 121.753 41.499 106.132C41.499 90.5112 29.0303 29.5938 21.1445 29.5938C13.2588 29.5938 0.790039 90.5112 0.790039 106.132Z" fill="#5F9D5F"/>
<path d="M21.1445 29.5938C22.7061 29.5938 24.4487 32.0093 26.2378 35.9629C19.8047 45.7061 11.4814 93.8442 11.4814 107.215C11.4814 120.279 17.2905 127.633 25.0029 129.249C23.7515 129.465 22.4663 129.594 21.1445 129.594C9.90283 129.594 0.790039 121.753 0.790039 106.133C0.790039 90.5122 13.2583 29.5938 21.1445 29.5938Z" fill="#5F8C6E"/>
<path d="M235.889 131.156H229.782V162.406H229.884C232.053 158.954 234.059 155.391 235.889 151.723V131.156Z" fill="#5F4648"/>
<path d="M209.938 107.887C209.938 125.46 220.189 134.281 232.836 134.281C236.812 134.281 240.549 133.406 243.808 131.665C247.169 120.36 249 108.396 249 96C249 70.4233 241.304 46.6514 228.122 26.8442C219.727 42.9849 209.938 93.2051 209.938 107.887Z" fill="#5F8C6E"/>
<path d="M228.122 26.8442C219.727 42.9854 209.938 93.2056 209.938 107.887C209.938 125.46 220.19 134.281 232.836 134.281C234.323 134.281 235.769 134.136 237.177 133.893C228.5 132.075 221.965 123.801 221.965 109.105C221.965 96.6392 228.396 57.3335 234.718 37.9888C232.704 34.1533 230.509 30.4312 228.122 26.8442Z" fill="#5F9D5F"/>
<path d="M63.4531 93.2314H58.6094V135.062H63.4531V93.2314Z" fill="#5F4648"/>
<path d="M90.0928 61.5469C90.0928 49.0342 81.8965 13.9688 61.0303 13.9688C40.1641 13.9688 31.9678 49.0342 31.9678 61.5469C31.9678 67.6182 35.0483 73.1191 40.0361 77.1865C41.0298 87.9126 50.0449 96.3125 61.0303 96.3125C72.0156 96.3125 81.0312 87.9121 82.0244 77.1865C87.0122 73.1187 90.0928 67.6182 90.0928 61.5469Z" fill="#88BE64"/>
<path d="M61.0308 13.9688C59.6538 13.9688 58.3355 14.1304 57.0679 14.4194C72.0225 18.5078 77.9839 49.8599 77.9839 61.5469C77.9839 67.6182 75.4165 73.1191 71.2603 77.1865C70.5347 86.5894 64.6704 94.2026 57.0674 95.938C58.3511 96.1821 59.6753 96.3125 61.0303 96.3125C72.0156 96.3125 81.0313 87.9121 82.0244 77.1865C87.0117 73.1191 90.0928 67.6182 90.0928 61.5469C90.0933 49.0342 81.897 13.9688 61.0308 13.9688Z" fill="#AAC864"/>
<path d="M176.734 73.9053H172.828V107.719H176.734V73.9053Z" fill="#5F4648"/>
<path d="M151.344 48.4321C151.344 38.3413 157.954 10.0625 174.781 10.0625C191.609 10.0625 198.219 38.3413 198.219 48.4321C198.219 53.3281 195.734 57.7646 191.712 61.0449C190.911 69.6943 183.641 76.4688 174.781 76.4688C165.922 76.4688 158.651 69.6943 157.85 61.0444C153.828 57.7642 151.344 53.3281 151.344 48.4321Z" fill="#88BE64"/>
<path d="M174.781 10.0625C175.892 10.0625 176.955 10.1929 177.977 10.4258C165.917 13.7227 161.109 39.0068 161.109 48.4321C161.109 53.3281 163.18 57.7646 166.531 61.0449C167.117 68.6279 171.846 74.7676 177.977 76.167C176.942 76.3638 175.874 76.4688 174.781 76.4688C165.922 76.4688 158.651 69.6943 157.85 61.0444C153.828 57.7642 151.344 53.3281 151.344 48.4321C151.344 38.3413 157.954 10.0625 174.781 10.0625Z" fill="#AAC864"/>
<path d="M37.125 108.856H31.1875V158.5H37.125V108.856Z" fill="#5F4648"/>
<path d="M210.346 114.393H203.814V170.219H210.346V114.393Z" fill="#5F4648"/>
<path d="M231.572 90.4287C231.572 76.3911 223.203 31.9595 215.013 10.3643C211.631 6.77148 208.049 3.37061 204.267 0.197754C194.897 11.6948 182.594 73.4087 182.594 90.4287C182.594 109.223 193.558 118.656 207.083 118.656C220.608 118.656 231.572 109.223 231.572 90.4287Z" fill="#5FAF50"/>
<path d="M204.267 0.197754C194.897 11.6943 182.594 73.4087 182.594 90.4287C182.594 109.223 193.558 118.656 207.083 118.656C208.673 118.656 210.219 118.501 211.725 118.24C202.445 116.296 195.457 107.448 195.457 91.7314C195.457 76.2524 204.727 22.0669 212.323 7.54883C209.75 4.97998 207.054 2.53564 204.267 0.197754Z" fill="#74B75A"/>
<path d="M34.1558 10.0625C33.8403 10.0625 33.5386 10.0986 33.228 10.1113C16.0991 28.208 4.30225 51.3994 0.410156 77.1982C2.09863 81.1069 4.84375 84.6377 8.4209 87.5552C9.63867 100.703 20.6895 111 34.1558 111C47.6221 111 58.6729 100.703 59.8911 87.5552C66.0049 82.5693 69.7808 75.8262 69.7808 68.3843C69.7808 53.0459 59.7334 10.0625 34.1558 10.0625Z" fill="#5FAF50"/>
<path d="M34.1558 10.0625C33.8384 10.0625 33.5356 10.1025 33.2231 10.1162C32.75 10.6157 32.2637 11.103 31.7988 11.6104C48.2798 19.2715 54.937 54.7349 54.937 68.3838C54.937 75.8262 51.79 82.5688 46.6953 87.5547C45.8057 99.0811 38.6177 108.413 29.2979 110.541C30.8716 110.84 32.4946 111 34.1558 111C47.6221 111 58.6729 100.703 59.8911 87.5547C66.0049 82.5688 69.7808 75.8257 69.7808 68.3838C69.7808 53.0459 59.7334 10.0625 34.1558 10.0625Z" fill="#74B75A"/>
</svg>
