<svg width="253" height="250" viewBox="0 0 253 250" fill="none" xmlns="http://www.w3.org/2000/svg">
<path d="M210.772 10.8601C209.56 10.1704 208.069 10.1832 206.869 10.896L140.617 50.2334C139.439 50.9325 138.717 52.2012 138.717 53.5713V86.6975C138.717 88.0676 139.44 89.3363 140.617 90.0354L206.869 129.373C209.414 130.884 212.734 128.992 212.734 126.035V14.2335C212.734 12.8383 211.984 11.5503 210.772 10.8601C211.984 11.5503 209.56 10.1699 210.772 10.8601Z" fill="#FFD652"/>
<path d="M111.454 50.2334L45.2015 10.8956C44.0012 10.1827 42.5119 10.1699 41.2988 10.8597C40.0867 11.5499 39.3379 12.8378 39.3379 14.2336V126.035C39.3379 128.992 42.6572 130.884 45.202 129.373L111.455 90.0355C112.633 89.3364 113.355 88.0677 113.355 86.6975V53.5714C113.354 52.2013 112.632 50.9325 111.454 50.2334Z" fill="#FFD652"/>
<path d="M217.133 0H200.569C198.425 0 196.688 1.73791 196.688 3.88199V136.388C196.688 138.532 198.425 140.269 200.569 140.269H217.133C219.277 140.269 221.015 138.532 221.015 136.388V3.88199C221.015 1.73791 219.277 0 217.133 0Z" fill="#FB9D46"/>
<path d="M196.688 115.683V136.387C196.688 138.531 198.425 140.269 200.569 140.269H217.133C219.277 140.269 221.015 138.531 221.015 136.387V115.683H196.688Z" fill="#FF7452"/>
<path d="M221.015 28.7267H196.688V49.6013H221.015V28.7267Z" fill="#FFD652"/>
<path d="M51.501 0H34.9376C32.7936 0 31.0557 1.73791 31.0557 3.88199V136.388C31.0557 138.532 32.7936 140.269 34.9376 140.269H51.501C53.645 140.269 55.3829 138.532 55.3829 136.388V3.88199C55.3829 1.73791 53.6446 0 51.501 0Z" fill="#FB9D46"/>
<path d="M55.3829 28.7267H31.0557V49.4305H55.3829V28.7267Z" fill="#FFD652"/>
<path d="M31.0557 115.856V136.387C31.0557 138.531 32.7936 140.269 34.9376 140.269H51.501C53.645 140.269 55.3829 138.531 55.3829 136.387V115.856H31.0557Z" fill="#FF7452"/>
<path d="M126.035 194.099C123.891 194.099 122.153 192.361 122.153 190.217V185.559C122.153 179.137 127.378 173.913 133.799 173.913H201.087C203.228 173.913 204.969 172.172 204.969 170.031V162.784C204.969 160.644 203.228 158.902 201.087 158.902H133.799C127.378 158.902 122.153 153.678 122.153 147.257V138.457C122.153 136.313 123.891 134.575 126.035 134.575C128.18 134.575 129.917 136.313 129.917 138.457V147.257C129.917 149.397 131.659 151.139 133.799 151.139H201.087C207.509 151.139 212.733 156.363 212.733 162.784V170.031C212.733 176.453 207.509 181.677 201.087 181.677H133.799C131.659 181.677 129.917 183.418 129.917 185.559V190.217C129.917 192.361 128.18 194.099 126.035 194.099Z" fill="#4C4C4C"/>
<path d="M134.316 95.2379H117.753C115.609 95.2379 113.871 96.9758 113.871 99.1199V136.387C113.871 138.531 115.609 140.269 117.753 140.269H134.316C136.461 140.269 138.198 138.531 138.198 136.387V99.1199C138.198 96.9763 136.461 95.2379 134.316 95.2379Z" fill="#CCCCCC"/>
<path d="M138.198 99.1199C138.198 96.9758 136.461 95.2379 134.316 95.2379H117.753C115.609 95.2379 113.871 96.9758 113.871 99.1199V111.542H138.198V99.1199Z" fill="#999999"/>
<path d="M143.116 37.267H108.955C102.533 37.267 97.3086 42.4911 97.3086 48.913V91.3559C97.3086 97.7778 102.533 103.002 108.955 103.002H143.116C149.537 103.002 154.762 97.7778 154.762 91.3559V48.913C154.762 42.4911 149.537 37.267 143.116 37.267Z" fill="#FF7452"/>
<path d="M142.08 57.7119C145.796 57.7119 148.809 54.6994 148.809 50.9833C148.809 47.2671 145.796 44.2546 142.08 44.2546C138.364 44.2546 135.352 47.2671 135.352 50.9833C135.352 54.6994 138.364 57.7119 142.08 57.7119Z" fill="#F7EDBC"/>
<path d="M113.613 91.3559V48.913C113.613 42.4911 118.837 37.267 125.259 37.267H108.955C102.533 37.267 97.3086 42.4911 97.3086 48.913V91.3559C97.3086 97.7778 102.533 103.002 108.955 103.002H125.259C118.837 103.002 113.613 97.7778 113.613 91.3559Z" fill="#E24642"/>
<path d="M133.282 186.335H118.79C108.087 186.335 99.3799 195.043 99.3799 205.745V238.354C99.3799 244.776 104.604 250 111.026 250H141.046C147.468 250 152.692 244.776 152.692 238.354V205.745C152.692 195.043 143.985 186.335 133.282 186.335Z" fill="#458FDE"/>
<path d="M152.692 216.874V209.11H129.917V186.364C130.26 186.345 130.605 186.335 130.953 186.335H129.917H122.153H118.789C108.086 186.335 99.3789 195.043 99.3789 205.745V209.11V216.874V238.354C99.3789 244.776 104.603 250 111.025 250H123.188C116.766 250 111.542 244.776 111.542 238.354V216.874H152.692ZM111.543 205.745C111.543 198.209 115.862 191.668 122.153 188.453V209.11H111.543V205.745Z" fill="#4F5AA8"/>
<path d="M248.189 74.0167H233.696C231.552 74.0167 229.814 72.2788 229.814 70.1347C229.814 67.9906 231.552 66.2527 233.696 66.2527H248.189C250.334 66.2527 252.071 67.9906 252.071 70.1347C252.071 72.2783 250.334 74.0167 248.189 74.0167Z" fill="#E24642"/>
<path d="M233.699 49.1715C232.587 49.1715 231.482 48.6964 230.714 47.7743C229.342 46.1274 229.564 43.6796 231.211 42.307L243.633 31.9549C245.281 30.5823 247.728 30.8048 249.101 32.4516C250.473 34.0985 250.251 36.5463 248.604 37.9189L236.181 48.271C235.456 48.8766 234.575 49.1715 233.699 49.1715Z" fill="#E24642"/>
<path d="M246.117 109.213C245.24 109.213 244.359 108.918 243.633 108.314L231.211 97.9614C229.564 96.5888 229.342 94.141 230.714 92.4941C232.087 90.8473 234.536 90.6253 236.181 91.9974L248.604 102.35C250.251 103.722 250.473 106.17 249.101 107.817C248.333 108.737 247.229 109.213 246.117 109.213Z" fill="#E24642"/>
<path d="M18.3746 74.0167H3.88199C1.73791 74.0167 0 72.2788 0 70.1347C0 67.9906 1.73791 66.2527 3.88199 66.2527H18.3746C20.5187 66.2527 22.2566 67.9906 22.2566 70.1347C22.2566 72.2783 20.5187 74.0167 18.3746 74.0167Z" fill="#E24642"/>
<path d="M18.3722 49.1715C17.4958 49.1715 16.6151 48.8766 15.8894 48.272L3.46701 37.9204C1.82018 36.5478 1.59765 34.0999 2.97025 32.4531C4.34285 30.8063 6.7907 30.5837 8.43753 31.9563L20.8599 42.3085C22.5067 43.6811 22.7292 46.1289 21.3566 47.7757C20.5886 48.6959 19.4843 49.1715 18.3722 49.1715Z" fill="#E24642"/>
<path d="M5.95473 109.213C4.84256 109.213 3.73828 108.738 2.97025 107.816C1.59765 106.169 1.82018 103.721 3.46701 102.349L15.8894 91.9965C17.5357 90.6239 19.984 90.8459 21.3566 92.4932C22.7292 94.1401 22.5067 96.5879 20.8599 97.9605L8.43753 108.313C7.71184 108.918 6.83058 109.213 5.95473 109.213Z" fill="#E24642"/>
</svg>
