<svg width="276" height="239" viewBox="0 0 276 239" fill="none" xmlns="http://www.w3.org/2000/svg">
<path d="M137 0C61.3442 0 0 61.7847 0 137.984C0 172.858 12.8548 204.702 34.0339 229H239.966C261.145 204.702 274 172.858 274 137.984C274 61.7847 212.656 0 137 0Z" fill="#D1D8D4"/>
<path d="M139.453 158.249H136.058C133.862 158.249 132.071 160.309 132.071 162.86V169.126C132.071 171.677 133.862 173.738 136.058 173.738H139.453C141.648 173.738 143.439 171.677 143.439 169.126V162.86C143.439 160.309 141.648 158.249 139.453 158.249Z" fill="#112223"/>
<path d="M92.0063 158.249H88.6112C86.4154 158.249 84.625 160.309 84.625 162.86V169.126C84.625 171.677 86.4154 173.738 88.6112 173.738H92.0063C94.2021 173.738 95.9925 171.677 95.9925 169.126V162.86C95.9925 160.309 94.2021 158.249 92.0063 158.249Z" fill="#112223"/>
<path d="M143.929 134.551H84.7606C81.1412 134.551 78.207 137.485 78.207 141.105V157.185C78.207 160.804 81.1412 163.738 84.7606 163.738H143.929C147.548 163.738 150.483 160.804 150.483 157.185V141.105C150.483 137.485 147.548 134.551 143.929 134.551Z" fill="#E05132"/>
<path d="M139.318 140.226C136.294 140.226 133.828 142.675 133.828 145.716C133.828 148.756 136.277 151.205 139.318 151.205C142.358 151.205 144.807 148.756 144.807 145.716C144.807 142.675 142.358 140.226 139.318 140.226Z" fill="#F0BE2E"/>
<path d="M88.0032 151.205C91.0349 151.205 93.4927 148.747 93.4927 145.716C93.4927 142.684 91.0349 140.226 88.0032 140.226C84.9714 140.226 82.5137 142.684 82.5137 145.716C82.5137 148.747 84.9714 151.205 88.0032 151.205Z" fill="#F0BE2E"/>
<path d="M98.2568 140.159V144.99C98.2568 149.82 114.168 151.121 114.168 151.121C114.168 151.121 130.079 149.82 130.079 144.99V140.159H98.2568Z" fill="#C8D1CC"/>
<path d="M114.235 108.505C114.235 108.505 97.5474 108.117 95.0813 110.668C92.6153 113.218 84.457 134.973 84.457 134.973H144.031C144.031 134.973 135.872 113.201 133.406 110.668C130.94 108.117 114.252 108.505 114.252 108.505H114.235Z" fill="#E05132"/>
<path d="M114.235 112.627C114.235 112.627 100.148 112.289 98.0705 114.451C95.993 116.596 89.1016 134.973 89.1016 134.973H139.368C139.368 134.973 132.494 116.596 130.399 114.451C128.322 112.306 114.235 112.627 114.235 112.627Z" fill="#CDD6D1"/>
<path d="M143.422 156.847H136.21V159.279H143.422V156.847Z" fill="white"/>
<path d="M91.602 156.847H84.3896V159.279H91.602V156.847Z" fill="white"/>
<g style="mix-blend-mode:multiply" opacity="0.45">
<path d="M143.929 134.551H143.861C142.729 131.578 135.669 112.998 133.389 110.651C130.923 108.1 114.235 108.489 114.235 108.489C114.235 108.489 114.083 108.489 113.812 108.489V163.738H132.071V169.126C132.071 171.677 133.862 173.738 136.058 173.738H139.453C141.648 173.738 143.439 171.677 143.439 169.126V163.738H143.929C147.56 163.738 150.482 160.799 150.482 157.185V141.122C150.482 137.49 147.543 134.568 143.929 134.568V134.551Z" fill="#B7BCBC"/>
</g>
<path d="M220.19 165.681H215.933C213.163 165.681 210.934 168.265 210.934 171.457V179.329C210.934 182.521 213.18 185.105 215.933 185.105H220.19C222.96 185.105 225.189 182.521 225.189 179.329V171.457C225.189 168.265 222.943 165.681 220.19 165.681Z" fill="#112223"/>
<path d="M160.633 165.681H156.377C153.607 165.681 151.377 168.265 151.377 171.457V179.329C151.377 182.521 153.623 185.105 156.377 185.105H160.633C163.403 185.105 165.633 182.521 165.633 179.329V171.457C165.633 168.265 163.386 165.681 160.633 165.681Z" fill="#112223"/>
<path d="M151.545 135.919H225.814C230.358 135.919 234.057 139.618 234.057 144.162V164.33C234.057 168.873 230.358 172.572 225.814 172.572H151.545C147.002 172.572 143.303 168.873 143.303 164.33V144.162C143.303 139.618 147.002 135.919 151.545 135.919Z" fill="#485556"/>
<path d="M220.02 143.047C216.22 143.047 213.129 146.138 213.129 149.939C213.129 153.739 216.22 156.83 220.02 156.83C223.821 156.83 226.912 153.739 226.912 149.939C226.912 146.138 223.821 143.047 220.02 143.047Z" fill="#F0BE2E"/>
<path d="M155.599 143.047C151.799 143.047 148.708 146.138 148.708 149.939C148.708 153.739 151.799 156.83 155.599 156.83C159.4 156.83 162.491 153.739 162.491 149.939C162.491 146.138 159.4 143.047 155.599 143.047Z" fill="#F0BE2E"/>
<path d="M168.487 142.963V149.027C168.487 155.09 188.469 156.729 188.469 156.729C188.469 156.729 208.451 155.09 208.451 149.027V142.963H168.504H168.487Z" fill="#C8D1CC"/>
<path d="M188.536 103.202C188.536 103.202 167.574 102.712 164.483 105.904C161.375 109.097 151.14 136.426 151.14 136.426H225.932C225.932 136.426 215.696 109.097 212.588 105.904C209.48 102.712 188.536 103.202 188.536 103.202Z" fill="#485556"/>
<path d="M188.536 108.387C188.536 108.387 170.851 107.965 168.233 110.668C165.615 113.37 156.967 136.426 156.967 136.426H220.088C220.088 136.426 211.439 113.37 208.821 110.668C206.203 107.965 188.519 108.387 188.519 108.387H188.536Z" fill="#CDD6D1"/>
<path d="M225.206 163.907H216.136V166.948H225.206V163.907Z" fill="white"/>
<path d="M160.142 163.907H151.071V166.948H160.142V163.907Z" fill="white"/>
<g style="mix-blend-mode:multiply" opacity="0.45">
<path d="M225.813 135.919H225.729C224.31 132.186 215.442 108.86 212.588 105.921C209.48 102.729 188.535 103.219 188.535 103.219C188.535 103.219 188.35 103.219 188.012 103.219V172.572H210.932V179.329C210.932 182.521 213.179 185.105 215.932 185.105H220.189C222.959 185.105 225.188 182.521 225.188 179.329V172.572H225.796C230.34 172.572 234.039 168.89 234.039 164.33V144.162C234.039 139.618 230.357 135.919 225.796 135.919H225.813Z" fill="#B7BCBC"/>
</g>
<path d="M47.1181 185.676L0.178711 239H275.109L228.153 185.676H47.1181Z" fill="#4A5658"/>
<path d="M42 191.385L7.66113 230.403H267.627L233.288 191.385H42Z" fill="#969D9E"/>
<path d="M72.2335 191.385L38.2324 230.403H244.823L210.822 191.385H72.2335Z" fill="#F2F2F4"/>
<path d="M89.8002 191.385L66.5078 230.403H217.46L194.168 191.385H89.8002Z" fill="#969D9E"/>
<path d="M111.557 191.385L92.5039 230.403H191.467L172.414 191.385H111.557Z" fill="#F2F2F4"/>
<path d="M131.469 191.385L116.217 230.403H167.75L152.498 191.385H131.469Z" fill="#969D9E"/>
<path d="M65.19 99.8709H53.8057V185.659H65.19V99.8709Z" fill="#889091"/>
<path d="M71.2051 55.5158V65.7347C71.2051 65.7347 76.0865 63.4038 81.424 58.9446C86.7615 54.4855 71.2051 55.5158 71.2051 55.5158Z" fill="#445052"/>
<path d="M71.2051 71.3424V81.5613C71.2051 81.5613 76.0865 79.2304 81.424 74.7712C86.7615 70.3121 71.2051 71.3424 71.2051 71.3424Z" fill="#445052"/>
<path d="M71.2051 87.1522V97.3711C71.2051 97.3711 76.0865 95.0402 81.424 90.581C86.7615 86.1218 71.2051 87.1522 71.2051 87.1522Z" fill="#445052"/>
<path d="M36.6796 58.9446C42.0171 63.4038 46.8985 65.7347 46.8985 65.7347V55.5158C46.8985 55.5158 31.3421 54.4855 36.6796 58.9446Z" fill="#445052"/>
<path d="M36.6796 74.7712C42.0171 79.2304 46.8985 81.5613 46.8985 81.5613V71.3424C46.8985 71.3424 31.3421 70.3121 36.6796 74.7712Z" fill="#445052"/>
<path d="M36.6796 90.5979C42.0171 95.0571 46.8985 97.388 46.8985 97.388V87.1691C46.8985 87.1691 31.3421 86.1388 36.6796 90.5979Z" fill="#445052"/>
<path d="M50.0058 52.1545H67.8594C70.7815 52.1545 73.1631 54.5361 73.1631 57.4582V95.3273C73.1631 98.2494 70.7815 100.631 67.8594 100.631H50.0058C47.0837 100.631 44.7021 98.2494 44.7021 95.3273V57.4582C44.7021 54.5361 47.0837 52.1545 50.0058 52.1545Z" fill="#112223"/>
<path d="M58.924 55.5158C55.7147 55.5158 53.0967 58.117 53.0967 61.3431C53.0967 64.5693 55.6979 67.1535 58.924 67.1535C62.1501 67.1535 64.7513 64.5524 64.7513 61.3431C64.7513 58.1339 62.1501 55.5158 58.924 55.5158Z" fill="#E05132"/>
<path d="M58.924 82.2201C62.1423 82.2201 64.7513 79.6111 64.7513 76.3928C64.7513 73.1745 62.1423 70.5655 58.924 70.5655C55.7056 70.5655 53.0967 73.1745 53.0967 76.3928C53.0967 79.6111 55.7056 82.2201 58.924 82.2201Z" fill="#F0BE2E"/>
<path d="M58.924 85.6488C55.7147 85.6488 53.0967 88.25 53.0967 91.4592C53.0967 94.6685 55.6979 97.2865 58.924 97.2865C62.1501 97.2865 64.7513 94.6854 64.7513 91.4592C64.7513 88.2331 62.1501 85.6488 58.924 85.6488Z" fill="#1B9D5C"/>
<g style="mix-blend-mode:multiply" opacity="0.65">
<path d="M81.4245 74.7713C85.5627 71.3087 77.1342 71.1566 73.148 71.258V64.7044C75.0567 63.6234 78.1477 61.6809 81.4245 58.9446C85.7147 55.3638 76.5262 55.3131 72.7426 55.4314C71.9488 53.5058 70.057 52.1545 67.8443 52.1545H59.0273V185.659H65.1756V100.614H67.8443C70.3948 100.614 72.5399 98.8068 73.0298 96.3914C74.9215 95.3104 78.0801 93.368 81.4076 90.581C85.5458 87.1184 77.1173 86.9664 73.1311 87.0677V80.5141C75.0398 79.4331 78.1308 77.4907 81.4076 74.7544L81.4245 74.7713Z" fill="#B7BCBC"/>
</g>
<path d="M142.956 200.405L135.625 206.215L142.094 214.965L158.782 202.871C158.782 202.871 155.759 196.317 142.956 200.388V200.405Z" fill="#112223"/>
<path d="M92.0126 125.798L81.3545 147.824L88.7357 152.03L98.0257 131.575C98.0257 131.575 121.014 118.772 114.511 110.309C108.008 101.847 95.0191 121.204 91.9957 125.798H92.0126Z" fill="#778081"/>
<path d="M108.026 91.9153L107.705 104.482H116.438L115.238 91.9153H108.026Z" fill="#F0BE2E"/>
<path d="M80.6969 157.62C85.2574 160.559 88.264 155.745 88.7369 152.03L81.3557 147.824C81.3557 147.824 75.8831 154.496 80.6969 157.603V157.62Z" fill="#F0BE2E"/>
<path d="M111.084 102.574C97.4698 102.574 105.223 143.145 105.223 143.145H121.539C125.981 126.795 124.698 102.574 111.084 102.574Z" fill="#3A3F40"/>
<path d="M77.9255 200.084L72.0645 209.256L89.3099 220.539C89.3099 220.539 94.3434 215.37 85.9655 204.864L77.9087 200.084H77.9255Z" fill="#112223"/>
<path d="M91.3034 164.512L70.5954 153.212C69.0752 152.384 67.0821 153.06 66.17 154.732L59.4981 166.944C58.586 168.616 59.0759 170.643 60.6129 171.488L81.321 182.788C82.8412 183.615 84.8343 182.94 85.7464 181.267L92.4182 169.055C93.3303 167.383 92.8405 165.356 91.3034 164.512Z" fill="#2E3C3E"/>
<path d="M85.1561 155.053L81.7104 153.178C80.6463 152.604 79.3119 152.992 78.7377 154.056L77.2344 156.81L78.8728 157.705L79.8187 155.965C80.1903 155.289 80.9672 155.002 81.5415 155.323L83.4333 156.354C84.0245 156.674 84.1934 157.485 83.8387 158.144L82.8928 159.884L84.5312 160.779L86.0345 158.026C86.6087 156.962 86.2203 155.627 85.1561 155.053Z" fill="#445052"/>
<path d="M120.828 143.145C120.828 143.145 108.633 143.044 109.562 153.178C110.491 163.312 120.879 176.504 120.879 176.504C120.879 176.504 130.574 203.462 136.114 207.853L147.195 198.868L132.044 174.393L120.811 143.145H120.828Z" fill="#112223"/>
<path d="M105.915 143.145C105.915 143.145 95.51 152.199 103.33 162.113C103.33 162.113 100.56 171.995 94.4459 178.362C88.3314 184.73 76.1025 200.591 76.1025 200.591L88.7537 207.854C88.7537 207.854 104.58 183.21 105.543 181.099C106.269 179.511 116.505 164.951 118.414 162.654C122.4 157.874 120.829 143.162 120.829 143.162H105.915V143.145Z" fill="#445052"/>
<path d="M112.214 105.192C103.042 106.914 120.592 134.835 120.592 134.835L138.209 147.807L143.175 140.932L126.824 128.366C126.824 128.366 121.369 103.469 112.197 105.192H112.214Z" fill="#778081"/>
<path d="M143.192 140.949L137.804 147.52C137.804 147.52 143.479 154.04 147.347 149.8C151.012 145.797 146.773 142.03 143.192 140.932V140.949Z" fill="#F0BE2E"/>
<path d="M111.691 71.5114C103.33 71.5114 96.54 77.8623 96.54 85.6996C96.54 93.537 103.313 99.8879 111.691 99.8879C120.069 99.8879 126.842 93.537 126.842 85.6996C126.842 77.8623 120.052 71.5114 111.691 71.5114Z" fill="#F0BE2E"/>
<path d="M122.164 70.2615C119.174 70.3797 116.371 68.2177 113.921 66.9678C111.016 65.4983 108.077 64.2146 104.834 64.5355C93.7538 65.6165 96.5408 72.7951 96.5408 72.7951C81.356 77.4738 100.932 97.1178 100.932 97.1178L105.527 92.439C102.25 90.9189 97.3346 86.7637 103.027 83.318C107.131 80.8351 109.074 87.8616 109.074 87.8616L112.469 86.2401L108.179 77.2036C113.432 80.8351 118.769 80.6493 122.485 80.2946C124.259 80.1257 125.998 79.5176 127.282 78.2846C132.687 73.1498 125.019 64.5355 125.019 64.5355C125.019 64.5355 127.13 70.0757 122.147 70.2784L122.164 70.2615Z" fill="#112223"/>
</svg>
