<svg width="245" height="250" viewBox="0 0 245 250" fill="none" xmlns="http://www.w3.org/2000/svg">
<path d="M236.412 97.8261H171.195C166.695 97.8261 163.043 94.1772 163.043 89.6738V57.0656C163.043 52.5622 166.695 48.9133 171.195 48.9133H236.412C240.913 48.9133 244.564 52.5622 244.564 57.0656V89.6743C244.564 94.1772 240.913 97.8261 236.412 97.8261Z" fill="#AEB3BF"/>
<path d="M57.0657 130.434H24.457C19.9565 130.434 16.3047 126.785 16.3047 122.282V73.3697C16.3047 59.8839 27.2753 48.9133 40.7611 48.9133H105.978C110.478 48.9133 114.13 52.5622 114.13 57.0656V89.6743C114.13 94.1776 110.478 97.8265 105.978 97.8265H65.2175V122.283C65.2175 126.785 61.5661 130.434 57.0657 130.434Z" fill="#C4C9D6"/>
<path d="M57.0653 130.434C61.5658 130.434 65.2176 126.785 65.2176 122.282V97.8256H105.978C110.479 97.8256 114.13 94.1767 114.13 89.6733V57.0656C114.13 52.5622 110.479 48.9133 105.978 48.9133H40.7607V130.434H57.0653Z" fill="#AEB3BF"/>
<path d="M236.412 130.434C231.912 130.434 228.26 126.785 228.26 122.282V24.4569C228.26 19.9535 231.912 16.3046 236.412 16.3046C240.913 16.3046 244.564 19.9535 244.564 24.4569V122.283C244.564 126.785 240.913 130.434 236.412 130.434Z" fill="#6C5B52"/>
<path d="M154.891 48.9133H122.282C117.782 48.9133 114.13 45.2644 114.13 40.761V8.15278C114.13 3.64939 117.782 0.000488281 122.282 0.000488281H154.891C159.391 0.000488281 163.043 3.64939 163.043 8.15278V40.7615C163.043 45.2644 159.391 48.9133 154.891 48.9133Z" fill="#AEB3BF"/>
<path d="M79.2393 195.815C79.0762 195.217 78.8037 194.565 78.5322 193.967C77.065 190.543 74.9458 187.065 72.0103 183.098C71.9561 182.934 71.8472 182.826 71.7383 182.663C67.1187 176.25 60.5431 168.533 51.7389 157.609C50.2717 155.761 48.695 153.859 47.1189 151.848C45.5432 149.892 43.1516 148.968 40.761 148.968C38.3704 148.968 35.9783 149.892 34.4031 151.848C31.9026 155.001 29.5657 157.881 27.3924 160.598C19.7294 170.055 14.0229 176.957 9.78363 182.663C9.67475 182.881 9.45697 183.153 9.29389 183.37C7.01168 186.577 5.21774 189.403 3.80466 192.12C3.58738 192.555 3.3701 193.044 3.2075 193.479C0.869135 198.425 0 203.098 0 209.239C0 231.739 18.2606 250 40.7605 250C63.2604 250 81.521 231.739 81.521 209.239C81.5215 204.184 80.8691 199.945 79.2393 195.815Z" fill="#7C84E8"/>
<path d="M81.5212 209.239C81.5212 231.738 63.2606 249.999 40.7607 249.999V148.967C43.1514 148.967 45.5434 149.891 47.1186 151.847C48.6948 153.858 50.2714 155.76 51.7387 157.608C60.5429 168.532 67.119 176.249 71.7381 182.662C71.847 182.825 71.9554 182.934 72.0101 183.097L72.6624 183.857C75.1087 186.901 77.0642 190.325 78.532 193.966C78.804 194.564 79.0759 195.216 79.239 195.814C80.8689 199.945 81.5212 204.184 81.5212 209.239Z" fill="#515BE0"/>
<path d="M154.891 0.000488281H138.587V48.9133H154.891C159.391 48.9133 163.043 45.2644 163.043 40.761V8.15278C163.043 3.64939 159.391 0.000488281 154.891 0.000488281Z" fill="#AEB3BF"/>
<path d="M187.499 16.3046H89.6738C85.1719 16.3046 81.5215 12.6547 81.5215 8.15229C81.5215 3.65037 85.1714 0 89.6738 0H187.499C192.001 0 195.652 3.64988 195.652 8.15229C195.652 12.6547 192.002 16.3046 187.499 16.3046Z" fill="#7C84E8"/>
<path d="M187.499 0.000488281H138.586V16.3046H187.499C192.001 16.3046 195.651 12.6547 195.651 8.1523C195.651 3.64988 192.001 0.000488281 187.499 0.000488281Z" fill="#515BE0"/>
<path d="M154.89 114.13H122.282C108.796 114.13 97.8252 103.16 97.8252 89.6738V57.0656C97.8252 43.5798 108.796 32.6092 122.282 32.6092H154.89C168.376 32.6092 179.347 43.5798 179.347 57.0656V89.6743C179.347 103.16 168.376 114.13 154.89 114.13Z" fill="#DBE1F1"/>
<path d="M154.891 32.6092H138.587V114.131H154.891C168.377 114.131 179.347 103.16 179.347 89.6743V57.0656C179.347 43.5793 168.377 32.6092 154.891 32.6092Z" fill="#D0D5E5"/>
</svg>
